<svg width="30" height="48" viewBox="0 0 30 48" fill="none" xmlns="http://www.w3.org/2000/svg">
<path d="M23.1793 12.4712H10.9102V13.2877H23.1793V12.4712Z" fill="#4153E4"/>
<path d="M23.1793 14.9731H10.9102V15.7896H23.1793V14.9731Z" fill="#4153E4"/>
<path d="M23.1793 17.8442H10.9102V18.6607H23.1793V17.8442Z" fill="#4153E4"/>
<path d="M23.1793 25.9561H10.9102V26.7725H23.1793V25.9561Z" fill="#4153E4"/>
<path d="M23.1793 28.458H10.9102V29.2745H23.1793V28.458Z" fill="#4153E4"/>
<path d="M23.1793 31.3291H10.9102V32.1456H23.1793V31.3291Z" fill="#4153E4"/>
<path d="M24.0501 1.77759H0V44.3263H30V8.88878L24.0501 1.77759ZM28.4564 10.0872V42.7723H1.54351V3.33151H22.7836V10.0872H28.4564Z" fill="#4153E4"/>
<path d="M7.29662 44.1818C7.29662 44.1818 6.59741 46.8156 6.01694 46.8156C5.26496 46.8156 4.81641 44.1423 4.81641 44.1423L7.29662 44.1818Z" fill="#FAFAFA"/>
<path d="M7.65156 43.9577C7.65156 43.9577 6.76766 47.2499 6.04206 47.2499C5.10539 47.2499 4.53809 43.8918 4.53809 43.8918L7.63836 43.9445L7.65156 43.9577Z" fill="#4153E4"/>
<path d="M9.18193 1.26422V1.11936H9.05C9.05 1.11936 9.05 1.07985 9.05 1.05352C9.05 0.250213 7.75712 0 6.16081 0C4.56451 0 3.27163 0.250213 3.27163 1.05352C3.27163 1.07985 3.27163 1.09303 3.27163 1.11936H3.13969V1.26422H2.33496V38.0186H2.66478C2.86267 40.1651 3.91806 44.1026 3.97083 44.2738L4.11597 44.8137L4.67004 44.8664C4.67004 44.8664 5.52756 44.9454 5.87057 44.9454V43.352C5.75184 43.352 5.55394 43.352 5.36925 43.3257C5.0922 42.259 4.49854 39.8359 4.30065 38.2556C4.86793 38.0976 5.35608 38.0318 5.93656 38.0318H6.29275C7.00515 38.0449 7.50645 38.1371 7.96819 38.2425C7.69115 39.7832 6.92599 42.259 6.58299 43.3125C6.31913 43.3125 6.02888 43.3388 5.87057 43.3388V44.1421V44.9323C6.22677 44.9323 7.20304 44.8796 7.20304 44.8796L7.74394 44.8532L7.91545 44.3397C7.98142 44.1553 9.34025 40.0861 9.60411 38.0318H9.94709V1.27738H9.14236L9.18193 1.26422ZM8.37716 36.4252H3.94446V2.85765H4.70962V16.7113C4.70962 17.1591 5.32969 17.5146 6.09487 17.5146C6.86004 17.5146 7.48007 17.1459 7.48007 16.7113V2.85765H8.37716V36.4252Z" fill="#4153E4"/>
</svg>
