<svg width="40" height="48" viewBox="0 0 40 48" fill="none" xmlns="http://www.w3.org/2000/svg">
<path d="M39.4349 1.21102C38.8436 0.44755 37.8712 0 36.8331 0H16.0052C14.2575 0 12.8252 1.26369 12.8252 2.83012V6.95022C8.59395 7.60839 5.34822 11.281 5.34822 15.6907C5.34822 18.1654 6.36005 20.39 8.00262 22.0091C3.16688 22.5487 0 26.195 0 31.4471V47.0588H28.4231V31.4471C28.4231 26.195 25.2562 22.5487 20.4074 22.0091C21.498 20.9428 22.2996 19.587 22.7201 18.0864H29.0801L29.159 23.9835L34.9934 17.7705L37.4113 17.6388H37.5296C39.1721 17.2966 40 16.5068 40 15.2694V2.84328C40 2.26409 39.8029 1.69808 39.4218 1.2242L39.4349 1.21102ZM26.82 31.4603V45.4792H1.59V31.4603C1.59 26.6425 4.59922 23.536 9.26413 23.536H10.0788C11.3141 24.1942 12.7201 24.5627 14.205 24.5627C15.6899 24.5627 17.1091 24.181 18.3443 23.536H19.159C23.8239 23.536 26.8331 26.6425 26.8331 31.4603H26.82ZM17.9106 21.9432C16.82 22.5882 15.5585 22.97 14.205 22.97C12.8515 22.97 11.59 22.5882 10.4993 21.9432C8.37055 20.6796 6.95137 18.3628 6.95137 15.7038C6.95137 12.1629 9.4875 9.21433 12.8384 8.56933C13.2851 8.47718 13.7451 8.43769 14.2181 8.43769C14.297 8.43769 14.3627 8.43769 14.4284 8.43769C18.3311 8.55616 21.4717 11.768 21.4717 15.7038C21.4717 15.9671 21.4455 16.2304 21.4192 16.4936C21.3535 17.0465 21.2352 17.573 21.0512 18.0864C20.4862 19.7055 19.3692 21.0745 17.9238 21.9432H17.9106ZM38.41 15.2563C38.41 15.4669 38.41 15.8091 37.2668 16.0461L34.2707 16.204L30.6965 20.0082L30.6439 16.4805H23.0092C23.0355 16.2172 23.0486 15.9539 23.0486 15.6907C23.0486 10.8729 19.1984 6.95023 14.4152 6.83176V2.81695C14.4152 2.14562 15.138 1.57959 16.0052 1.57959H36.8331C37.385 1.57959 37.8844 1.80338 38.1866 2.18511C38.2917 2.31675 38.4231 2.54052 38.4231 2.81695V15.2431L38.41 15.2563Z" fill="#4153E4"/>
<path d="M14.2198 29.1567L12.7481 27.3138L11.2764 25.4709H14.2198H17.1634L15.6916 27.3138L14.2198 29.1567Z" fill="#4153E4"/>
<path d="M14.2166 41.5703L12.4689 39.3589L10.7344 37.1606L14.2166 28.9072L17.6857 37.1606L15.9512 39.3589L14.2166 41.5703Z" fill="#4153E4"/>
</svg>
