<svg width="30" height="45" viewBox="0 0 30 45" fill="none" xmlns="http://www.w3.org/2000/svg">
<path d="M21.5257 18.7235C23.2455 17.0389 24.3273 14.6916 24.3273 12.0957C24.3273 6.97294 20.1387 2.80298 14.9931 2.80298C9.84743 2.80298 5.64494 6.97294 5.64494 12.0957C5.64494 14.6916 6.71289 17.0251 8.4466 18.7235C3.34258 19.2896 0 23.1144 0 28.6238V45H30V28.6238C30 23.1144 26.6574 19.2896 21.5395 18.7235H21.5257ZM7.32316 12.0957C7.32316 7.88427 10.7628 4.47372 14.9792 4.47372C19.1956 4.47372 22.6352 7.89807 22.6352 12.0957C22.6352 14.8711 21.1234 17.3013 18.8904 18.6407C17.7392 19.3311 16.4078 19.7177 14.9792 19.7177C13.5506 19.7177 12.2053 19.3172 11.068 18.6407C8.82108 17.3151 7.32316 14.8849 7.32316 12.0957ZM28.3079 43.3292H1.67822V28.6238C1.67822 23.5701 4.85436 20.3114 9.77808 20.3114H10.638C11.9417 21.0018 13.4258 21.3884 15.0069 21.3884C16.5881 21.3884 18.0721 20.988 19.3759 20.3114H20.2358C25.1595 20.3114 28.3356 23.5701 28.3356 28.6238V43.3292H28.3079Z" fill="#4153E4"/>
<path d="M14.9789 26.6216L13.4255 24.6885L11.8721 22.7554H14.9789H18.0857L16.5323 24.6885L14.9789 26.6216Z" fill="#4153E4"/>
<path d="M14.9792 39.6426L13.1484 37.3366L11.3037 35.0307L14.9792 26.3594L18.6546 35.0307L16.8238 37.3366L14.9792 39.6426Z" fill="#4153E4"/>
<path d="M27.2397 6.75205L25.8527 6.06165C23.8277 2.4716 19.7362 0 15.0205 0C10.3048 0 6.19943 2.4716 4.18833 6.06165L2.80137 6.75205C2.17724 6.75205 1.66406 7.47007 1.66406 7.88431V13.007C1.66406 13.4213 2.16337 14.5121 2.80137 14.5121H4.31317C4.9373 14.5121 5.45048 14.1807 5.45048 13.7665V7.66338C6.96226 4.18378 10.6793 1.72599 15.0344 1.72599C19.3894 1.72599 23.1065 4.19759 24.6183 7.66338V13.7665C24.6183 14.1807 25.1176 14.5121 25.7556 14.5121H26.0469C26.0607 15.0506 25.9914 15.4925 25.6308 15.8515C24.8263 16.6385 22.5933 17.0528 18.696 17.1218V17.0942C18.696 16.6799 18.4047 16.3486 18.058 16.3486H14.5212C14.1745 16.3486 13.8832 16.6799 13.8832 17.0942V17.8398C13.8832 18.254 14.1745 18.5854 14.5212 18.5854H18.058C18.377 18.5854 18.6266 18.3231 18.6821 17.9779C22.9817 17.895 25.2979 17.4118 26.3104 16.4314C26.8929 15.8515 26.99 15.1887 26.9761 14.5121H27.2674C27.8915 14.5121 28.4047 13.4213 28.4047 13.007V7.88431C28.4047 7.47007 27.8915 6.75205 27.2674 6.75205H27.2397Z" fill="#4153E4"/>
</svg>
