<svg width="40" height="47" viewBox="0 0 40 47" fill="none" xmlns="http://www.w3.org/2000/svg">
<path d="M36.1091 0H17.2577C15.5348 0 14.0847 1.13098 13.5678 2.69145H3.35966C1.50754 2.69145 0 4.19464 0 6.04143V43.65C0 45.4968 1.50754 47 3.35966 47H25.5564C27.4085 47 28.916 45.4968 28.916 43.65V20.8873H36.1091C38.2484 20.8873 40 19.1407 40 17.0076V3.87968C40 1.73226 38.2484 0 36.1091 0ZM15.6927 20.558L15.664 28.2029L23.1874 20.8873H24.4795V38.124H4.45083V10.1788H13.3668V16.9933C13.3668 18.5681 14.3001 19.9424 15.6927 20.5437V20.558ZM27.1787 43.65C27.1787 44.5519 26.4465 45.2677 25.5564 45.2677H3.35966C2.46949 45.2677 1.73726 44.5376 1.73726 43.65V6.04143C1.73726 5.15382 2.46949 4.4237 3.35966 4.4237H13.3525V8.46086H2.69921V39.8705H26.2024V20.9016H27.1787V43.6643V43.65ZM38.2627 16.9933C38.2627 18.1815 37.3008 19.1407 36.1091 19.1407H22.4695L17.4157 24.0655V19.2409L16.7552 19.0835C15.7789 18.8544 15.0897 17.9954 15.0897 16.9933V3.86537C15.0897 3.42157 15.219 3.0064 15.4487 2.67713C15.8363 2.10448 16.4968 1.71795 17.2434 1.71795H36.0948C37.2864 1.71795 38.2484 2.67713 38.2484 3.86537V16.9933H38.2627Z" fill="#4153E4"/>
<path d="M33.6112 6.80029H20.3018V7.77379H33.6112V6.80029Z" fill="#4153E4"/>
<path d="M33.6112 9.70654H20.3018V10.68H33.6112V9.70654Z" fill="#4153E4"/>
<path d="M33.6112 12.6125H20.3018V13.586H33.6112V12.6125Z" fill="#4153E4"/>
</svg>
