<svg width="164" height="156" viewBox="0 0 164 156" fill="none" xmlns="http://www.w3.org/2000/svg">
<g clip-path="url(#clip0_393_17949)">
<path d="M81.8274 21.7809C71.4103 19.4924 60.706 20.0746 51.3679 23.5311C46.6955 25.2567 41.3969 27.6253 39.2009 32.1853C37.1977 36.3519 39.0105 41.1392 41.9309 45.0433C45.3988 49.6793 50.3108 53.3591 55.0461 56.6626C60.5963 60.5308 66.4551 63.9027 72.1521 67.5461C74.8793 69.2902 77.6567 71.0549 80.1656 73.1132C82.1897 74.7637 83.9701 76.8156 84.0744 79.3641C84.273 83.9738 79.3406 86.7041 75.5504 87.9527C70.2104 89.7207 64.3721 90.2093 58.5618 90.2605C52.7514 90.3118 47.0263 89.8542 41.2486 88.8654C30.1865 86.9797 16.9187 83.3372 9.72145 73.406C8.21617 71.3298 7.00112 68.7525 7.48973 66.3659C7.97833 63.9793 9.75995 62.5598 11.8852 61.7384C16.6742 59.8812 22.5618 60.8993 27.751 62.2481C33.4782 63.7442 39.0245 66.1322 44.3966 68.821C49.7688 71.5097 54.9255 74.4953 59.9426 77.7801C80.2557 91.0854 97.5107 109.111 109.79 129.588C111.322 132.145 112.778 134.74 114.17 137.361C114.543 138.061 115.531 138.548 116.263 138.675C116.802 138.765 117.61 138.659 117.244 137.935C111.681 127.005 104.553 116.669 96.3599 107.231C88.167 97.7934 78.6892 89.058 68.4528 81.6029C58.2164 74.1477 47.1769 67.6536 35.5717 63.0734C29.7758 60.7887 23.7599 59.1396 17.7286 58.6618C12.9952 58.2844 6.73682 59.1311 4.67247 63.5128C2.40304 68.3172 6.99884 73.9739 10.7116 77.4855C15.3916 81.899 21.2577 84.9148 27.1613 87.0511C38.877 91.2991 51.6208 92.82 63.4804 92.3219C69.2221 92.0788 75.1112 91.4157 80.2069 89.2172C83.9725 87.5968 88.1357 84.2308 87.2299 79.5047C86.7138 76.8319 84.6849 74.5907 82.556 72.8074C80.0256 70.6927 77.2036 68.8726 74.4453 67.0841C68.5953 63.2986 62.531 59.8501 56.7896 55.8875C52.0149 52.5915 46.8345 48.775 43.7111 43.8476C42.4236 41.8188 41.5082 39.589 41.4682 37.3073C41.4163 34.5269 42.8289 32.1663 44.7623 30.4185C48.5795 26.9711 54.0484 25.0422 59.1898 23.7998C64.3311 22.5574 69.5906 22.153 74.9928 22.528C77.6261 22.7101 80.2647 23.1214 82.8851 23.6942C83.4353 23.8121 84.0809 23.6445 83.8101 22.9972C83.5393 22.3499 82.472 21.906 81.8417 21.763L81.8274 21.7809Z" fill="#4153E4"/>
<path d="M98.323 123.652C104.204 129.438 110.093 135.23 116.351 140.643C116.865 141.084 119.755 142.235 119.092 140.677C117.333 136.53 115.763 132.328 114.406 128.082C113.049 123.835 112.113 119.564 110.876 115.307C110.593 114.327 107.456 112.929 107.644 114.234C108.288 118.594 109.695 123.027 111.074 127.301C112.453 131.575 114.063 135.866 115.849 140.075L118.59 140.109C112.533 134.876 106.814 129.288 101.117 123.688C100.499 123.086 99.6053 122.536 98.749 122.565C98.1005 122.583 97.7274 123.077 98.3115 123.652L98.323 123.652Z" fill="#4153E4"/>
</g>
<defs>
<clipPath id="clip0_393_17949">
<rect width="138.145" height="88.4697" fill="white" transform="translate(55.3053) rotate(38.6919)"/>
</clipPath>
</defs>
</svg>
