<svg width="20" height="20" viewBox="0 0 20 20" fill="none" xmlns="http://www.w3.org/2000/svg">
<g clip-path="url(#clip0_1394_35803)">
<path fill-rule="evenodd" clip-rule="evenodd" d="M13.3334 2.70837C14.1622 2.70837 14.9568 3.03785 15.5429 3.6239C16.1289 4.20995 16.4584 5.00457 16.4584 5.83337V16.2492L16.4486 16.3925C16.4292 16.5337 16.381 16.6703 16.3062 16.7928C16.2066 16.9563 16.0638 17.0894 15.8936 17.177C15.7234 17.2646 15.532 17.3032 15.3411 17.2893C15.1502 17.2753 14.967 17.2085 14.8113 17.0972L9.99927 13.6597L5.18888 17.0972L5.18807 17.0964C5.03266 17.2074 4.85037 17.2744 4.65991 17.2885C4.46916 17.3025 4.27834 17.2634 4.10815 17.1761C3.9379 17.0888 3.79459 16.9561 3.69474 16.7928C3.59496 16.6296 3.54199 16.4421 3.54175 16.2509V5.83337C3.54175 5.00457 3.87122 4.20995 4.45728 3.6239C5.04333 3.03785 5.83795 2.70837 6.66675 2.70837H13.3334ZM6.66675 3.95837C6.16947 3.95837 5.6927 4.15606 5.34106 4.50769C4.98943 4.85932 4.79175 5.33609 4.79175 5.83337V15.8448L9.39461 12.557C9.57127 12.4308 9.78297 12.3633 10.0001 12.3633L10.0815 12.3666C10.2695 12.3813 10.4504 12.4469 10.6047 12.557L15.2084 15.8456V5.83337C15.2084 5.33609 15.0107 4.85932 14.6591 4.50769C14.3075 4.15606 13.8307 3.95837 13.3334 3.95837H6.66675Z" fill="#323232"/>
</g>
<defs>
<clipPath id="clip0_1394_35803">
<rect width="20" height="20" fill="white"/>
</clipPath>
</defs>
</svg>
