<svg width="30" height="30" viewBox="0 0 30 30" fill="none" xmlns="http://www.w3.org/2000/svg">
<g clip-path="url(#clip0_393_14719)">
<path d="M26.0129 9.90967H3.71619" stroke="#4153E4" stroke-width="1.2741" stroke-linecap="round" stroke-linejoin="round"/>
<path d="M21.6776 16.1035C22.7801 16.1035 23.8578 16.4304 24.7745 17.0429C25.6911 17.6554 26.4056 18.526 26.8275 19.5445C27.2494 20.5631 27.3598 21.6839 27.1447 22.7652C26.9296 23.8464 26.3987 24.8397 25.6192 25.6192C24.8396 26.3988 23.8464 26.9297 22.7651 27.1448C21.6838 27.3598 20.563 27.2494 19.5445 26.8275C18.5259 26.4057 17.6554 25.6912 17.0429 24.7745C16.4304 23.8579 16.1035 22.7802 16.1035 21.6777C16.1035 20.1993 16.6907 18.7815 17.7361 17.7362C18.7815 16.6908 20.1993 16.1035 21.6776 16.1035Z" stroke="#4153E4" stroke-width="1.2741" stroke-linecap="round" stroke-linejoin="round"/>
<path d="M18.1755 26.013H7.43224C6.44667 26.013 5.50146 25.6215 4.80455 24.9246C4.10764 24.2277 3.71613 23.2825 3.71613 22.2969V7.43242C3.71613 6.44685 4.10764 5.50164 4.80455 4.80473C5.50146 4.10783 6.44667 3.71631 7.43224 3.71631H22.2967C23.2823 3.71631 24.2275 4.10783 24.9244 4.80473C25.6213 5.50164 26.0128 6.44685 26.0128 7.43242V18.1757" stroke="#4153E4" stroke-width="1.2741" stroke-linecap="round" stroke-linejoin="round"/>
<path d="M21.9521 18.9397V21.902" stroke="#4153E4" stroke-width="1.2741" stroke-linecap="round" stroke-linejoin="round"/>
<path d="M19.5391 21.9016H21.952" stroke="#4153E4" stroke-width="1.2741" stroke-linecap="round" stroke-linejoin="round"/>
<path d="M8.42215 14.245C8.42215 14.2573 8.41852 14.2693 8.41171 14.2795C8.40491 14.2896 8.39523 14.2976 8.38392 14.3023C8.3726 14.3069 8.36015 14.3082 8.34813 14.3058C8.33612 14.3034 8.32508 14.2975 8.31642 14.2888C8.30776 14.2802 8.30186 14.2691 8.29947 14.2571C8.29708 14.2451 8.29831 14.2327 8.30299 14.2213C8.30768 14.21 8.31562 14.2003 8.3258 14.1935C8.33599 14.1867 8.34796 14.1831 8.36021 14.1831" stroke="#4153E4" stroke-width="1.2741" stroke-linecap="round" stroke-linejoin="round"/>
<path d="M8.36005 14.1831C8.37647 14.1831 8.39223 14.1896 8.40384 14.2012C8.41546 14.2129 8.42198 14.2286 8.42198 14.245" stroke="#4153E4" stroke-width="1.2741" stroke-linecap="round" stroke-linejoin="round"/>
<path d="M12.7587 14.245C12.7587 14.2573 12.7551 14.2693 12.7483 14.2795C12.7415 14.2896 12.7318 14.2976 12.7205 14.3023C12.7091 14.3069 12.6967 14.3082 12.6847 14.3058C12.6727 14.3034 12.6616 14.2975 12.653 14.2888C12.6443 14.2802 12.6384 14.2691 12.636 14.2571C12.6336 14.2451 12.6349 14.2327 12.6395 14.2213C12.6442 14.21 12.6522 14.2003 12.6624 14.1935C12.6725 14.1867 12.6845 14.1831 12.6968 14.1831" stroke="#4153E4" stroke-width="1.2741" stroke-linecap="round" stroke-linejoin="round"/>
<path d="M12.6968 14.1831C12.7132 14.1831 12.729 14.1896 12.7406 14.2012C12.7522 14.2129 12.7587 14.2286 12.7587 14.245" stroke="#4153E4" stroke-width="1.2741" stroke-linecap="round" stroke-linejoin="round"/>
<path d="M8.42215 17.9616C8.42215 17.9738 8.41852 17.9858 8.41171 17.996C8.40491 18.0062 8.39523 18.0141 8.38392 18.0188C8.3726 18.0235 8.36015 18.0247 8.34813 18.0223C8.33612 18.0199 8.32508 18.0141 8.31642 18.0054C8.30776 17.9967 8.30186 17.9857 8.29947 17.9737C8.29708 17.9617 8.29831 17.9492 8.30299 17.9379C8.30768 17.9266 8.31562 17.9169 8.3258 17.9101C8.33599 17.9033 8.34796 17.8997 8.36021 17.8997" stroke="#4153E4" stroke-width="1.2741" stroke-linecap="round" stroke-linejoin="round"/>
<path d="M8.36005 17.8997C8.37647 17.8997 8.39223 17.9062 8.40384 17.9178C8.41546 17.9294 8.42198 17.9452 8.42198 17.9616" stroke="#4153E4" stroke-width="1.2741" stroke-linecap="round" stroke-linejoin="round"/>
<path d="M12.7587 17.9616C12.7587 17.9738 12.7551 17.9858 12.7483 17.996C12.7415 18.0062 12.7318 18.0141 12.7205 18.0188C12.7091 18.0235 12.6967 18.0247 12.6847 18.0223C12.6727 18.0199 12.6616 18.0141 12.653 18.0054C12.6443 17.9967 12.6384 17.9857 12.636 17.9737C12.6336 17.9617 12.6349 17.9492 12.6395 17.9379C12.6442 17.9266 12.6522 17.9169 12.6624 17.9101C12.6725 17.9033 12.6845 17.8997 12.6968 17.8997" stroke="#4153E4" stroke-width="1.2741" stroke-linecap="round" stroke-linejoin="round"/>
<path d="M12.6968 17.8997C12.7132 17.8997 12.729 17.9062 12.7406 17.9178C12.7522 17.9294 12.7587 17.9452 12.7587 17.9616" stroke="#4153E4" stroke-width="1.2741" stroke-linecap="round" stroke-linejoin="round"/>
<path d="M17.0929 14.245C17.0929 14.2573 17.0893 14.2693 17.0825 14.2795C17.0757 14.2896 17.066 14.2976 17.0547 14.3023C17.0434 14.3069 17.0309 14.3082 17.0189 14.3058C17.0069 14.3034 16.9959 14.2975 16.9872 14.2888C16.9785 14.2802 16.9726 14.2691 16.9702 14.2571C16.9679 14.2451 16.9691 14.2327 16.9738 14.2213C16.9785 14.21 16.9864 14.2003 16.9966 14.1935C17.0068 14.1867 17.0187 14.1831 17.031 14.1831" stroke="#4153E4" stroke-width="1.2741" stroke-linecap="round" stroke-linejoin="round"/>
<path d="M17.0311 14.1831C17.0476 14.1831 17.0633 14.1896 17.0749 14.2012C17.0865 14.2129 17.0931 14.2286 17.0931 14.245" stroke="#4153E4" stroke-width="1.2741" stroke-linecap="round" stroke-linejoin="round"/>
<path d="M8.42215 21.6774C8.42215 21.6897 8.41852 21.7016 8.41171 21.7118C8.40491 21.722 8.39523 21.7299 8.38392 21.7346C8.3726 21.7393 8.36015 21.7405 8.34813 21.7382C8.33612 21.7358 8.32508 21.7299 8.31642 21.7212C8.30776 21.7125 8.30186 21.7015 8.29947 21.6895C8.29708 21.6775 8.29831 21.665 8.30299 21.6537C8.30768 21.6424 8.31562 21.6327 8.3258 21.6259C8.33599 21.6191 8.34796 21.6155 8.36021 21.6155" stroke="#4153E4" stroke-width="1.2741" stroke-linecap="round" stroke-linejoin="round"/>
<path d="M8.36005 21.6155C8.37647 21.6155 8.39223 21.622 8.40384 21.6336C8.41546 21.6452 8.42198 21.661 8.42198 21.6774" stroke="#4153E4" stroke-width="1.2741" stroke-linecap="round" stroke-linejoin="round"/>
<path d="M12.7587 21.6774C12.7587 21.6897 12.7551 21.7016 12.7483 21.7118C12.7415 21.722 12.7318 21.7299 12.7205 21.7346C12.7091 21.7393 12.6967 21.7405 12.6847 21.7382C12.6727 21.7358 12.6616 21.7299 12.653 21.7212C12.6443 21.7125 12.6384 21.7015 12.636 21.6895C12.6336 21.6775 12.6349 21.665 12.6395 21.6537C12.6442 21.6424 12.6522 21.6327 12.6624 21.6259C12.6725 21.6191 12.6845 21.6155 12.6968 21.6155" stroke="#4153E4" stroke-width="1.2741" stroke-linecap="round" stroke-linejoin="round"/>
<path d="M12.6968 21.6155C12.7132 21.6155 12.729 21.622 12.7406 21.6336C12.7522 21.6452 12.7587 21.661 12.7587 21.6774" stroke="#4153E4" stroke-width="1.2741" stroke-linecap="round" stroke-linejoin="round"/>
</g>
<defs>
<clipPath id="clip0_393_14719">
<rect width="29.7289" height="29.7289" fill="white"/>
</clipPath>
</defs>
</svg>
