<svg width="20" height="20" viewBox="0 0 20 20" fill="none" xmlns="http://www.w3.org/2000/svg">
<path d="M3.35977 3.75313C4.2547 2.85854 5.70552 2.85914 6.60033 3.75394L7.5777 4.73132L7.70954 4.8778C8.28268 5.5826 8.24698 6.57834 7.64444 7.30293L7.5069 7.45349L6.82005 8.13952C7.27656 9.17104 7.96696 10.1963 8.88548 11.1148C9.80417 12.0334 10.8294 12.723 11.8599 13.1786L12.6176 12.4218C13.3495 11.6893 14.537 11.6898 15.2689 12.4218L16.2463 13.3999L16.4034 13.5741C17.1371 14.4746 17.0855 15.8022 16.2463 16.6413L15.7035 17.1833C14.9796 17.9072 13.9648 18.2262 12.9561 18.0964L12.7543 18.0638C10.4367 17.6257 7.94241 16.2914 5.82559 14.1747C3.84094 12.19 2.54375 9.87365 2.02839 7.68217L1.93561 7.24597C1.733 6.17213 2.04384 5.06824 2.81615 4.29594L3.35977 3.75313ZM5.71654 4.63773C5.33516 4.25636 4.73157 4.23234 4.3225 4.56612L4.24356 4.63773L3.69994 5.18054L3.69912 5.17972C3.2367 5.64241 3.03377 6.3214 3.16445 7.01403L3.24584 7.39815C3.70167 9.33397 4.86742 11.448 6.70938 13.2901C8.67418 15.2549 10.9489 16.4506 12.9862 16.8358L13.1156 16.8562C13.7627 16.9397 14.386 16.7333 14.8197 16.2995L15.3625 15.7567C15.7686 15.3503 15.7691 14.6915 15.3625 14.2837L14.3843 13.3064C14.1399 13.0619 13.7445 13.062 13.5014 13.3055L12.7331 14.0746C12.393 14.4147 11.8615 14.544 11.3871 14.3358C10.2007 13.8163 9.03612 13.0329 8.00169 11.9986C6.97152 10.9684 6.18956 9.80936 5.66934 8.6278C5.45669 8.14596 5.5886 7.60435 5.93464 7.25817L6.62311 6.5697L6.68171 6.50541C6.91788 6.22601 6.91046 5.91882 6.76878 5.70625L6.69391 5.61511L5.71654 4.63773Z" fill="black"/>
<path d="M11.0156 5.20281C11.9713 5.23574 12.9215 5.61374 13.654 6.34621L13.6963 6.39341C13.8967 6.63881 13.8827 7.00107 13.654 7.23C13.4099 7.47407 13.0135 7.47407 12.7694 7.23L12.6685 7.13397C12.1864 6.69938 11.5839 6.47294 10.9725 6.452L10.8415 6.45037L10.778 6.44793C10.4624 6.42025 10.2128 6.15786 10.2083 5.83432C10.2037 5.48918 10.4801 5.20506 10.8252 5.20037L11.0156 5.20281Z" fill="black"/>
<path d="M10.8333 1.84485C12.7056 1.84485 14.5806 2.56008 16.0099 3.98922L16.0531 4.03723C16.2532 4.28271 16.2387 4.64501 16.0099 4.87382C15.7658 5.11752 15.3701 5.11772 15.1261 4.87382C13.9405 3.68819 12.3876 3.09485 10.8333 3.09485C10.4882 3.09485 10.2083 2.81503 10.2083 2.46985C10.2083 2.12467 10.4882 1.84485 10.8333 1.84485Z" fill="black"/>
<path d="M14.7994 9.17506C14.7947 9.52018 14.5106 9.7958 14.1654 9.79111C13.8204 9.78629 13.5447 9.50304 13.5494 9.15797L14.7994 9.17506ZM12.7698 6.34629C12.9986 6.11745 13.3609 6.1029 13.6064 6.30316L13.654 6.34621L13.7952 6.49521C14.4805 7.25568 14.8124 8.21958 14.7994 9.17506L14.1744 9.16611L13.5494 9.15797C13.5583 8.50244 13.3312 7.84812 12.8658 7.3318L12.7694 7.23L12.7266 7.18288C12.5264 6.93739 12.5409 6.57512 12.7698 6.34629Z" fill="black"/>
<path d="M16.9046 9.16622C16.9045 7.70918 16.3841 6.25283 15.3421 5.09965L15.1261 4.87382L15.0833 4.82621C14.8831 4.58072 14.8976 4.21846 15.1264 3.98962C15.3553 3.76078 15.7175 3.74623 15.963 3.94649L16.0099 3.98922L16.2698 4.26306C17.526 5.65359 18.1545 7.41102 18.1546 9.16622C18.1546 9.51139 17.8748 9.79122 17.5296 9.79122C17.1846 9.791 16.9046 9.51126 16.9046 9.16622Z" fill="black"/>
</svg>
