<svg width="20" height="20" viewBox="0 0 20 20" fill="none" xmlns="http://www.w3.org/2000/svg">
<path d="M8.09578 3.08755C8.33987 2.84358 8.73553 2.84351 8.97957 3.08755C9.22345 3.3316 9.22349 3.7273 8.97957 3.97134L7.0533 5.8976C6.93612 6.01448 6.77694 6.07993 6.61141 6.0799C6.44574 6.07979 6.28663 6.01397 6.16951 5.89679L5.01473 4.74119C4.77085 4.49714 4.77091 4.10142 5.01473 3.8574C5.25882 3.61349 5.65451 3.61347 5.89852 3.8574L6.61141 4.57029L8.09578 3.08755Z" fill="#323232"/>
<path fill-rule="evenodd" clip-rule="evenodd" d="M7.00122 0.208315C9.00042 0.210326 10.6624 1.6456 11.0173 3.54165H11.6667C12.4719 3.54165 13.1251 4.1948 13.1251 4.99998V5.20831H16.1028C16.6987 5.2084 17.2362 5.57107 17.4569 6.12628L18.2398 8.08429C18.2418 8.08886 18.2436 8.0935 18.2455 8.09813L18.7948 9.4702C18.9021 9.73937 18.9584 10.0287 18.9584 10.3206V15.2775C18.9584 16.0827 18.3053 16.7358 17.5001 16.7358H16.5178C16.4287 17.036 16.266 17.3193 16.0287 17.5561L16.0279 17.5553C15.3157 18.2671 14.189 18.3125 13.4254 17.6888L13.2781 17.5553C13.0608 17.3379 12.9072 17.0808 12.8142 16.8082H7.32593C7.233 17.0808 7.0796 17.3379 6.86206 17.5553C6.10242 18.3146 4.87069 18.3155 4.11141 17.5553C3.89359 17.3371 3.74045 17.0788 3.64754 16.805H2.50008C1.69491 16.805 1.04175 16.1518 1.04175 15.3467V4.99998C1.04175 4.1948 1.6949 3.54165 2.50008 3.54165H2.98104C3.34793 1.66906 5.03962 0.20657 7.00122 0.208315ZM5.97827 15.6893C5.70649 15.418 5.26702 15.4181 4.9952 15.6893C4.72487 15.9595 4.72406 16.4 4.99601 16.6723C5.26659 16.9429 5.70643 16.943 5.97827 16.6715L6.02629 16.6186C6.23367 16.3645 6.23347 15.9973 6.02547 15.7422L5.97827 15.6893ZM15.1449 15.6893C14.8742 15.4186 14.4339 15.4177 14.1619 15.6893C13.891 15.9598 13.8903 16.3996 14.1619 16.6715L14.1627 16.6723C14.4333 16.9429 14.8731 16.9432 15.1449 16.6715C15.4157 16.401 15.4164 15.9612 15.1449 15.6893ZM13.1251 12.5C13.1251 12.8452 12.8453 13.125 12.5001 13.125H2.29175V15.3467C2.29175 15.4615 2.38526 15.555 2.50008 15.555H3.64673C3.73938 15.2811 3.89278 15.0231 4.11141 14.8047C4.87117 14.0461 6.1014 14.0463 6.86125 14.8047L6.86206 14.8055C7.08104 15.0246 7.23485 15.2834 7.32756 15.5582H12.8118C12.9045 15.2829 13.0593 15.024 13.2789 14.8047C14.0385 14.0464 15.2695 14.0463 16.0287 14.8055C16.2284 15.0052 16.3743 15.238 16.469 15.4858H17.5001C17.6149 15.4858 17.7084 15.3923 17.7084 15.2775V12.2916H15.0001C14.6549 12.2916 14.3751 12.0118 14.3751 11.6666V8.33331C14.3751 7.98814 14.6549 7.70831 15.0001 7.70831H16.7432L16.2957 6.58934L16.2948 6.58852C16.2639 6.51068 16.1883 6.4584 16.1028 6.45831H13.1251V12.5ZM2.50008 4.79165C2.38526 4.79165 2.29175 4.88516 2.29175 4.99998V11.875H11.8751V4.99998C11.8751 4.88516 11.7816 4.79165 11.6667 4.79165H11.0572C10.8139 6.81775 9.09061 8.3901 6.99797 8.39028C4.90537 8.39028 3.18124 6.8187 2.93791 4.79165H2.50008ZM15.6251 11.0416H17.7084V10.3206C17.7084 10.1894 17.6829 10.058 17.6335 9.93406L17.2437 8.95831H15.6251V11.0416ZM6.99959 1.45831C5.47093 1.45705 4.15698 2.76971 4.15698 4.2993C4.15706 5.86822 5.42903 7.14028 6.99797 7.14028C8.56645 7.14009 9.83805 5.86756 9.83813 4.2993C9.83813 2.73092 8.56779 1.45979 6.99959 1.45831Z" fill="#323232"/>
</svg>
