<svg width="16" height="16" viewBox="0 0 16 16" fill="none" xmlns="http://www.w3.org/2000/svg">
<path d="M9.41431 6.64216C10.195 7.42283 10.195 8.69016 9.41431 9.47216C8.63364 10.2528 7.36631 10.2528 6.58431 9.47216C5.80364 8.6915 5.80364 7.42416 6.58431 6.64216C7.36631 5.86016 8.63298 5.86016 9.41431 6.64216Z" stroke="#727272" stroke-width="1.2" stroke-linecap="round" stroke-linejoin="round"/>
<path d="M2 8.05534C2 7.616 2.10133 7.18134 2.29733 6.78067C3.30733 4.71601 5.53933 3.38867 8 3.38867C10.4607 3.38867 12.6927 4.71601 13.7027 6.78067C13.8987 7.18134 14 7.616 14 8.05534C14 8.49467 13.8987 8.92934 13.7027 9.33C12.6927 11.3947 10.4607 12.722 8 12.722C5.53933 12.722 3.30733 11.3947 2.29733 9.33C2.10133 8.92934 2 8.49467 2 8.05534Z" stroke="#727272" stroke-width="1.2" stroke-linecap="round" stroke-linejoin="round"/>
</svg>
