<svg width="20" height="20" viewBox="0 0 20 20" fill="none" xmlns="http://www.w3.org/2000/svg">
<g clip-path="url(#clip0_1406_35992)">
<path fill-rule="evenodd" clip-rule="evenodd" d="M10.0001 1.875C10.3869 1.875 10.7577 2.02876 11.0312 2.30225C11.3047 2.57574 11.4584 2.94656 11.4584 3.33333V5.83333C11.4584 6.22011 11.3047 6.59093 11.0312 6.86442C10.7577 7.13791 10.3869 7.29167 10.0001 7.29167H8.95841V16.6667C8.95841 17.2745 8.7168 17.8572 8.28703 18.2869C7.85726 18.7167 7.27454 18.9583 6.66675 18.9583C6.05896 18.9583 5.47624 18.7167 5.04647 18.2869C4.6167 17.8572 4.37508 17.2745 4.37508 16.6667V7.29167H1.66675C1.32157 7.29167 1.04175 7.01185 1.04175 6.66667V5C1.04175 4.83424 1.10764 4.67532 1.22485 4.55811L3.72485 2.05811L3.82007 1.97998C3.92198 1.91204 4.04245 1.875 4.16675 1.875H10.0001ZM5.62508 16.6667L5.62996 16.77C5.65371 17.0083 5.75941 17.2323 5.93026 17.4032C6.12561 17.5985 6.39048 17.7083 6.66675 17.7083C6.94301 17.7083 7.20789 17.5985 7.40324 17.4032C7.59859 17.2078 7.70841 16.9429 7.70841 16.6667V7.29167H5.62508V16.6667ZM2.29175 5.25879V6.04167H10.0001C10.0553 6.04167 10.1083 6.0197 10.1474 5.98063C10.1865 5.94156 10.2084 5.88859 10.2084 5.83333V3.33333C10.2084 3.27808 10.1865 3.22511 10.1474 3.18604C10.118 3.1567 10.0809 3.13706 10.0408 3.12907L10.0001 3.125H4.42554L2.29175 5.25879Z" fill="#323232"/>
<path fill-rule="evenodd" clip-rule="evenodd" d="M16.2615 1.875C16.4066 1.87502 16.5495 1.90558 16.6814 1.9637L16.8092 2.03044L16.9264 2.11507C17.0002 2.17631 17.0649 2.24763 17.1192 2.32666L17.1933 2.45036L18.1796 4.42139C18.3166 4.69513 18.3637 5.00545 18.3147 5.30762C18.2657 5.60983 18.1227 5.88948 17.9062 6.10596L16.4584 7.55371V10.297C17.42 10.5693 18.1251 11.4513 18.1251 12.5V16.6667C18.1251 17.9323 17.0991 18.9583 15.8334 18.9583C14.5678 18.9583 13.5417 17.9323 13.5417 16.6667V12.5C13.5417 11.4513 14.2469 10.5693 15.2084 10.297V7.55534L13.7607 6.10758C13.5443 5.89119 13.4012 5.61214 13.3521 5.31006C13.3031 5.00793 13.3503 4.69757 13.4872 4.42383L14.4752 2.45036L14.5484 2.32666C14.6301 2.20794 14.7358 2.10672 14.8593 2.03044L14.9871 1.9637C15.1187 1.90576 15.2613 1.87503 15.4062 1.875H16.2615ZM15.8334 11.4583C15.2581 11.4583 14.7917 11.9247 14.7917 12.5V16.6667C14.7917 17.242 15.2581 17.7083 15.8334 17.7083C16.4087 17.7083 16.8751 17.242 16.8751 16.6667V12.5C16.8751 11.9247 16.4087 11.4583 15.8334 11.4583ZM14.6054 4.98291C14.5858 5.02203 14.5789 5.06669 14.5859 5.10986C14.5929 5.15297 14.6136 5.19291 14.6444 5.2238L15.8318 6.41113L17.0224 5.22135L17.0606 5.16927C17.0705 5.15005 17.0775 5.12899 17.081 5.10742C17.0879 5.06441 17.0809 5.02027 17.0614 4.98128L16.1329 3.125H15.5347L14.6054 4.98291Z" fill="#323232"/>
</g>
<defs>
<clipPath id="clip0_1406_35992">
<rect width="20" height="20" fill="white"/>
</clipPath>
</defs>
</svg>
