<svg width="32" height="32" viewBox="0 0 32 32" fill="none" xmlns="http://www.w3.org/2000/svg">
<g clip-path="url(#clip0_491_21329)">
<path d="M26.0003 9.33317C27.8413 9.33317 29.3337 7.84079 29.3337 5.99984C29.3337 4.15889 27.8413 2.6665 26.0003 2.6665C24.1594 2.6665 22.667 4.15889 22.667 5.99984C22.667 7.84079 24.1594 9.33317 26.0003 9.33317Z" stroke="white" stroke-width="1.5" stroke-linecap="round" stroke-linejoin="round"/>
<path d="M28 13.3333V21.3333C28 23.1014 27.2976 24.7971 26.0474 26.0474C24.7971 27.2976 23.1014 28 21.3333 28H10.6667C8.89856 28 7.20286 27.2976 5.95262 26.0474C4.70238 24.7971 4 23.1014 4 21.3333V10.6667C4 8.89856 4.70238 7.20286 5.95262 5.95262C7.20286 4.70238 8.89856 4 10.6667 4H18.6667" stroke="white" stroke-width="1.5" stroke-linecap="round" stroke-linejoin="round"/>
<path d="M20.0003 21.3331H12.0003C11.6467 21.3331 11.3076 21.1927 11.0575 20.9426C10.8075 20.6926 10.667 20.3534 10.667 19.9998V15.2818C10.667 14.9819 10.7345 14.6858 10.8644 14.4154C10.9943 14.1451 11.1834 13.9074 11.4177 13.7201L14.687 11.1047C15.0416 10.821 15.4822 10.6665 15.9363 10.6665C16.3904 10.6665 16.831 10.821 17.1857 11.1047L20.583 13.8225C20.8172 14.0098 21.0063 14.2475 21.1363 14.5178C21.2662 14.7882 21.3337 15.0843 21.3337 15.3843V19.9998C21.3337 20.3534 21.1932 20.6926 20.9431 20.9426C20.6931 21.1927 20.3539 21.3331 20.0003 21.3331Z" stroke="white" stroke-width="1.5" stroke-linecap="round" stroke-linejoin="round"/>
</g>
<defs>
<clipPath id="clip0_491_21329">
<rect width="32" height="32" fill="white"/>
</clipPath>
</defs>
</svg>
