<svg width="24" height="24" viewBox="0 0 24 24" fill="none" xmlns="http://www.w3.org/2000/svg">
<g clip-path="url(#clip0_478_34179)">
<path d="M8.5 12.5C8.5 11.5717 8.86875 10.6815 9.52513 10.0251C10.1815 9.36875 11.0717 9 12 9C12.9283 9 13.8185 9.36875 14.4749 10.0251C15.1313 10.6815 15.5 11.5717 15.5 12.5C15.5 14.1385 13.712 15.8888 12.692 16.7544C12.4966 16.9133 12.2524 17 12.0005 17C11.7486 17 11.5044 16.9133 11.309 16.7544C10.288 15.8888 8.5 14.1385 8.5 12.5Z" stroke="#4153E4" stroke-width="1.5" stroke-linecap="round" stroke-linejoin="round"/>
<path d="M11.999 12.25C11.9496 12.2502 11.9014 12.265 11.8604 12.2926C11.8194 12.3202 11.7875 12.3593 11.7687 12.405C11.75 12.4507 11.7452 12.501 11.7549 12.5494C11.7647 12.5978 11.7886 12.6423 11.8236 12.6771C11.8586 12.712 11.9031 12.7357 11.9516 12.7453C12.0001 12.7548 12.0503 12.7498 12.0959 12.7309C12.1415 12.7119 12.1805 12.6799 12.2079 12.6388C12.2354 12.5977 12.25 12.5494 12.25 12.5C12.2502 12.467 12.2438 12.4344 12.2312 12.4039C12.2187 12.3734 12.2002 12.3458 12.1768 12.3225C12.1535 12.2992 12.1257 12.2808 12.0952 12.2684C12.0647 12.256 12.032 12.2497 11.999 12.25Z" stroke="#4153E4" stroke-width="1.5" stroke-linecap="round" stroke-linejoin="round"/>
<path d="M21 17V10.7194C21 10.1195 20.8651 9.52733 20.6052 8.98666C20.3454 8.44599 19.9672 7.97069 19.4988 7.59595L15.1235 4.09568C14.2369 3.38641 13.1353 3 12 3C10.8646 3 9.76305 3.38641 8.87648 4.09568L4.50121 7.59595C4.03278 7.97069 3.65464 8.44599 3.39478 8.98666C3.13492 9.52734 3 10.1195 3 10.7194V17C3 18.0609 3.42143 19.0783 4.17157 19.8284C4.92172 20.5786 5.93913 21 7 21H17C18.0609 21 19.0783 20.5786 19.8284 19.8284C20.5786 19.0783 21 18.0609 21 17Z" stroke="#4153E4" stroke-width="1.5" stroke-linecap="round" stroke-linejoin="round"/>
</g>
<defs>
<clipPath id="clip0_478_34179">
<rect width="24" height="24" fill="white"/>
</clipPath>
</defs>
</svg>
