<svg width="40" height="40" viewBox="0 0 40 40" fill="none" xmlns="http://www.w3.org/2000/svg">
<g clip-path="url(#clip0_393_14582)">
<path d="M5 17.6338L17.8307 6.63588C18.4348 6.11802 19.2043 5.83337 20 5.83337C20.7957 5.83337 21.5652 6.11802 22.1693 6.63588L35 17.6338" stroke="#4153E4" stroke-width="2" stroke-linecap="round" stroke-linejoin="round"/>
<path d="M18.3333 35H5" stroke="#4153E4" stroke-width="2" stroke-linecap="round" stroke-linejoin="round"/>
<path d="M26.0393 9.95303V6.25C26.0393 5.91848 26.171 5.60054 26.4054 5.36612C26.6399 5.1317 26.9578 5 27.2893 5H31.6075C31.939 5 32.257 5.1317 32.4914 5.36612C32.7258 5.60054 32.8575 5.91848 32.8575 6.25V15.7973" stroke="#4153E4" stroke-width="2" stroke-linecap="round" stroke-linejoin="round"/>
<path d="M7.1425 15.7974V35" stroke="#4153E4" stroke-width="2" stroke-linecap="round" stroke-linejoin="round"/>
<path d="M27.7785 21.6666H23.6467C23.1215 21.6667 22.6179 21.8753 22.2466 22.2467C21.8752 22.618 21.6666 23.1217 21.6667 23.6468V27.7776C21.667 28.0379 21.7186 28.2956 21.8185 28.5359C21.9184 28.7762 22.0647 28.9945 22.249 29.1783L27.4902 34.42C27.8617 34.7913 28.3655 34.9999 28.8908 34.9999C29.416 34.9999 29.9198 34.7913 30.2913 34.42L34.4202 30.2921C34.7915 29.9205 35 29.4167 35 28.8914C35 28.3661 34.7915 27.8623 34.4202 27.4907L29.179 22.2491C28.9953 22.0647 28.777 21.9184 28.5367 21.8185C28.2964 21.7186 28.0387 21.667 27.7785 21.6666Z" stroke="#4153E4" stroke-width="2" stroke-linecap="round" stroke-linejoin="round"/>
<path d="M25.8872 25.887C25.8733 25.9009 25.8656 25.9197 25.8656 25.9394C25.8656 25.959 25.8734 25.9779 25.8873 25.9917C25.9012 26.0056 25.92 26.0134 25.9397 26.0134C25.9593 26.0134 25.9782 26.0056 25.992 25.9917C26.0059 25.9778 26.0137 25.959 26.0137 25.9393C26.0137 25.9197 26.006 25.9009 25.9921 25.887C25.9782 25.8731 25.9594 25.8653 25.9397 25.8652C25.9201 25.8652 25.9011 25.8731 25.8872 25.887Z" stroke="#4153E4" stroke-width="2" stroke-linecap="round" stroke-linejoin="round"/>
</g>
<defs>
<clipPath id="clip0_393_14582">
<rect width="40" height="40" fill="white"/>
</clipPath>
</defs>
</svg>
