<svg width="18" height="18" viewBox="0 0 18 18" fill="none" xmlns="http://www.w3.org/2000/svg">
<g clip-path="url(#clip0_1070_21848)">
<path d="M11.1052 10.1939L8.76367 9.25644V5.91895" stroke="#4153E4" stroke-linecap="round" stroke-linejoin="round"/>
<path d="M2.25 4.125V6.375H4.5" stroke="#4153E4" stroke-linecap="round" stroke-linejoin="round"/>
<path d="M2.29492 9.75001C2.47937 11.3787 3.25087 12.8843 4.46508 13.9854C5.67929 15.0864 7.25304 15.7073 8.89192 15.732C10.5308 15.7567 12.1225 15.1834 13.3694 14.1195C14.6162 13.0556 15.4327 11.5738 15.6661 9.95146C15.8996 8.3291 15.5339 6.67726 14.6376 5.30497C13.7413 3.93267 12.3758 2.93393 10.7964 2.49557C9.21705 2.05721 7.53208 2.20927 6.05671 2.9233C4.58135 3.63734 3.41666 4.86442 2.78052 6.37501" stroke="#4153E4" stroke-linecap="round" stroke-linejoin="round"/>
</g>
<defs>
<clipPath id="clip0_1070_21848">
<rect width="18" height="18" fill="white"/>
</clipPath>
</defs>
</svg>
