<svg width="18" height="18" viewBox="0 0 18 18" fill="none" xmlns="http://www.w3.org/2000/svg">
<g clip-path="url(#clip0_1070_21841)">
<path d="M9.75 15.75H6C5.00544 15.75 4.05161 15.3549 3.34835 14.6517C2.64509 13.9484 2.25 12.9946 2.25 12V6C2.25 5.00544 2.64509 4.05161 3.34835 3.34835C4.05161 2.64509 5.00544 2.25 6 2.25H12C12.9946 2.25 13.9484 2.64509 14.6517 3.34835C15.3549 4.05161 15.75 5.00544 15.75 6V9.75C15.75 11.3413 15.1179 12.8674 13.9926 13.9926C12.8674 15.1179 11.3413 15.75 9.75 15.75Z" stroke="#4153E4" stroke-linecap="round" stroke-linejoin="round"/>
<path d="M15.75 8.25V9.75C15.75 10.1478 15.592 10.5294 15.3107 10.8107C15.0294 11.092 14.6478 11.25 14.25 11.25H12.75C12.1533 11.25 11.581 11.4871 11.159 11.909C10.7371 12.331 10.5 12.9033 10.5 13.5V14.25C10.5 14.6478 10.342 15.0294 10.0607 15.3107C9.77936 15.592 9.39782 15.75 9 15.75H6" stroke="#4153E4" stroke-linecap="round" stroke-linejoin="round"/>
<path d="M12 6H6" stroke="#4153E4" stroke-linecap="round" stroke-linejoin="round"/>
</g>
<defs>
<clipPath id="clip0_1070_21841">
<rect width="18" height="18" fill="white"/>
</clipPath>
</defs>
</svg>
