<svg width="18" height="18" viewBox="0 0 18 18" fill="none" xmlns="http://www.w3.org/2000/svg">
<path d="M14.7853 7.209V3C14.7853 2.586 14.4493 2.25 14.0353 2.25H12.6426C12.2286 2.25 11.8926 2.586 11.8926 3V4.7295" stroke="#4153E4" stroke-linecap="round" stroke-linejoin="round"/>
<path d="M2.25 8.03545L8.0235 3.08696C8.58525 2.60546 9.414 2.60546 9.97575 3.08696L15.75 8.03545" stroke="#4153E4" stroke-linecap="round" stroke-linejoin="round"/>
<path d="M3.21484 7.20898V14.25C3.21484 15.0787 3.88609 15.75 4.71484 15.75H8.25034" stroke="#4153E4" stroke-linecap="round" stroke-linejoin="round"/>
<path d="M13.125 16.5C11.2613 16.5 9.75 14.9887 9.75 13.125C9.75 11.2613 11.2613 9.75 13.125 9.75C14.9895 9.75 16.5 11.2613 16.5 13.125C16.5 14.9887 14.9895 16.5 13.125 16.5Z" stroke="#4153E4" stroke-linecap="round" stroke-linejoin="round"/>
<path d="M14.458 12.4583L12.7915 14.1248L11.791 13.125" stroke="#4153E4" stroke-linecap="round" stroke-linejoin="round"/>
</svg>
