<svg width="161" height="57" viewBox="0 0 161 57" fill="none" xmlns="http://www.w3.org/2000/svg">
<path fill-rule="evenodd" clip-rule="evenodd" d="M31.9784 45.6793H40.1786L32.3243 32.2103C34.4821 31.6344 36.3308 30.5516 37.6009 29.2153C39.094 27.6444 39.9636 25.6788 40.1838 23.6293C40.4871 20.8052 39.5589 17.8196 37.3327 15.4811C35.8819 13.9572 34.1883 13.1911 32.3664 12.8153C31.0154 12.5366 29.5933 12.4721 28.1477 12.4721H20.246L24.4064 19.2895L28.1974 19.3023C29.3852 19.3061 30.4937 19.3573 31.127 19.6488C31.8015 19.959 32.4053 20.6055 32.7226 21.396C33.061 22.2396 33.0739 23.2475 32.4987 24.188C31.661 25.5576 30.5304 25.7666 29.0645 25.7786L20.3025 25.7721L31.9784 45.6793Z" fill="#386EFD"/>
<path fill-rule="evenodd" clip-rule="evenodd" d="M28.5699 2.69878C42.8486 2.69878 54.4237 14.1999 54.4237 28.3872C54.4237 42.5745 42.8486 54.0756 28.5699 54.0756C14.2913 54.0756 2.71615 42.5745 2.71615 28.3872C2.71615 14.1999 14.2913 2.69878 28.5699 2.69878ZM28.5699 0C44.3487 0 57.1399 12.7094 57.1399 28.3872C57.1399 44.065 44.3487 56.7744 28.5699 56.7744C12.7912 56.7744 0 44.065 0 28.3872C0 12.7094 12.7912 0 28.5699 0Z" fill="#386EFD"/>
<path d="M63.6549 45.6559V15.4702C65.605 15.4702 67.1858 17.04 67.1858 18.9764V42.5176H77.5052C79.2507 42.5176 80.6657 43.9227 80.6657 45.6559H63.6549Z" fill="white"/>
<path d="M63.6549 45.6559V15.4702C65.605 15.4702 67.1858 17.04 67.1858 18.9764V42.5176H77.5052C79.2507 42.5176 80.6657 43.9227 80.6657 45.6559H63.6549Z" fill="#323232"/>
<path d="M104.925 45.6559L101.187 36.0758H93.5012C91.8677 36.0758 90.6967 34.5113 91.1676 32.9581L89.0154 36.0758L86.5821 42.3458C85.8081 44.3403 83.8776 45.6559 81.725 45.6559L93.03 16.8148C93.377 15.9295 94.2357 15.3464 95.1925 15.3464C96.1513 15.3464 97.0113 15.9319 97.357 16.8199L107.263 42.2701C107.898 43.9007 106.686 45.6559 104.925 45.6559ZM93.5909 32.9581C96.7593 32.9581 98.9572 29.822 97.8563 26.8717L96.5757 23.4399C96.4927 23.1922 96.3542 22.7861 96.1603 22.2218C95.9803 21.6574 95.7934 21.0724 95.5995 20.4668C95.4057 19.8611 95.2464 19.3725 95.1218 19.0009C94.9834 19.5652 94.831 20.1296 94.6649 20.6939C94.5126 21.2445 94.3602 21.7607 94.2079 22.2424C94.0556 22.7104 93.9241 23.1096 93.8133 23.4399L89.0154 36.0758L91.1676 32.9581H93.5909Z" fill="white"/>
<path d="M104.925 45.6559L101.187 36.0758H93.5012C91.8677 36.0758 90.6967 34.5113 91.1676 32.9581L89.0154 36.0758L86.5821 42.3458C85.8081 44.3403 83.8776 45.6559 81.725 45.6559L93.03 16.8148C93.377 15.9295 94.2357 15.3464 95.1925 15.3464C96.1513 15.3464 97.0113 15.9319 97.357 16.8199L107.263 42.2701C107.898 43.9007 106.686 45.6559 104.925 45.6559ZM93.5909 32.9581C96.7593 32.9581 98.9572 29.822 97.8563 26.8717L96.5757 23.4399C96.4927 23.1922 96.3542 22.7861 96.1603 22.2218C95.9803 21.6574 95.7934 21.0724 95.5995 20.4668C95.4057 19.8611 95.2464 19.3725 95.1218 19.0009C94.9834 19.5652 94.831 20.1296 94.6649 20.6939C94.5126 21.2445 94.3602 21.7607 94.2079 22.2424C94.0556 22.7104 93.9241 23.1096 93.8133 23.4399L89.0154 36.0758L91.1676 32.9581H93.5909Z" fill="#323232"/>
<path d="M133.81 43.0368C133.81 44.4833 132.629 45.6559 131.173 45.6559C130.279 45.6559 129.446 45.2064 128.96 44.4616L113.185 20.3016H113.019C113.061 20.9761 113.109 21.7469 113.165 22.6141C113.22 23.4675 113.262 24.3828 113.289 25.3601C113.331 26.3236 113.352 27.3078 113.352 28.3126V42.3972C113.352 44.197 111.882 45.6559 110.07 45.6559V18.0757C110.07 16.6368 111.245 15.4702 112.694 15.4702C113.583 15.4702 114.412 15.9177 114.896 16.6589L130.612 40.742H130.757C130.729 40.2602 130.695 39.5789 130.653 38.6979C130.612 37.8032 130.57 36.8466 130.529 35.828C130.501 34.7957 130.487 33.8391 130.487 32.9581V18.7702C130.487 16.9477 131.975 15.4702 133.81 15.4702V43.0368Z" fill="white"/>
<path d="M133.81 43.0368C133.81 44.4833 132.629 45.6559 131.173 45.6559C130.279 45.6559 129.446 45.2064 128.96 44.4616L113.185 20.3016H113.019C113.061 20.9761 113.109 21.7469 113.165 22.6141C113.22 23.4675 113.262 24.3828 113.289 25.3601C113.331 26.3236 113.352 27.3078 113.352 28.3126V42.3972C113.352 44.197 111.882 45.6559 110.07 45.6559V18.0757C110.07 16.6368 111.245 15.4702 112.694 15.4702C113.583 15.4702 114.412 15.9177 114.896 16.6589L130.612 40.742H130.757C130.729 40.2602 130.695 39.5789 130.653 38.6979C130.612 37.8032 130.57 36.8466 130.529 35.828C130.501 34.7957 130.487 33.8391 130.487 32.9581V18.7702C130.487 16.9477 131.975 15.4702 133.81 15.4702V43.0368Z" fill="#323232"/>
<path d="M161 30.274C161 33.6739 160.377 36.5163 159.131 38.8012C157.884 41.0723 156.077 42.786 153.71 43.9422C151.356 45.0847 148.496 45.6559 145.132 45.6559H141.435C138.922 45.6559 136.886 43.6336 136.886 41.139V20.7549L140.417 18.464H136.886C136.886 16.8106 138.236 15.4702 139.901 15.4702H146.045C149.133 15.4702 151.792 16.0346 154.021 17.1633C156.251 18.2782 157.968 19.9368 159.172 22.1392C160.391 24.3277 161 27.0394 161 30.274ZM157.282 30.3979C157.282 27.6863 156.825 25.4496 155.911 23.6877C155.011 21.9258 153.682 20.6182 151.923 19.7648C150.179 18.8976 148.039 18.464 145.505 18.464H140.417L136.886 20.7549C138.836 20.7549 140.417 22.3247 140.417 24.2611V40.8347C140.417 41.8326 141.231 42.6415 142.236 42.6415H144.716C148.898 42.6415 152.034 41.616 154.125 39.5651C156.23 37.5142 157.282 34.4585 157.282 30.3979Z" fill="white"/>
<path d="M161 30.274C161 33.6739 160.377 36.5163 159.131 38.8012C157.884 41.0723 156.077 42.786 153.71 43.9422C151.356 45.0847 148.496 45.6559 145.132 45.6559H141.435C138.922 45.6559 136.886 43.6336 136.886 41.139V20.7549L140.417 18.464H136.886C136.886 16.8106 138.236 15.4702 139.901 15.4702H146.045C149.133 15.4702 151.792 16.0346 154.021 17.1633C156.251 18.2782 157.968 19.9368 159.172 22.1392C160.391 24.3277 161 27.0394 161 30.274ZM157.282 30.3979C157.282 27.6863 156.825 25.4496 155.911 23.6877C155.011 21.9258 153.682 20.6182 151.923 19.7648C150.179 18.8976 148.039 18.464 145.505 18.464H140.417L136.886 20.7549C138.836 20.7549 140.417 22.3247 140.417 24.2611V40.8347C140.417 41.8326 141.231 42.6415 142.236 42.6415H144.716C148.898 42.6415 152.034 41.616 154.125 39.5651C156.23 37.5142 157.282 34.4585 157.282 30.3979Z" fill="#323232"/>
<path d="M66.773 53.8561H68.8314V56.692C68.5226 56.796 68.2044 56.8733 67.8767 56.924C67.5518 56.9747 67.1879 57 66.7851 57C66.1728 57 65.6559 56.8787 65.2343 56.636C64.8154 56.3933 64.4971 56.048 64.2796 55.6C64.0621 55.1494 63.9534 54.6147 63.9534 53.9961C63.9534 53.3908 64.0729 52.8628 64.3119 52.4121C64.5535 51.9615 64.9013 51.6121 65.3551 51.3642C65.8117 51.1135 66.3595 50.9882 66.9986 50.9882C67.3262 50.9882 67.6364 51.0188 67.9291 51.0802C68.2245 51.1388 68.4984 51.2228 68.7508 51.3322L68.489 51.9241C68.2715 51.8308 68.0312 51.7508 67.768 51.6842C67.5075 51.6175 67.2376 51.5841 66.9583 51.5841C66.4776 51.5841 66.0654 51.6828 65.7217 51.8801C65.3807 52.0775 65.1188 52.3561 64.9362 52.7161C64.7563 53.0761 64.6663 53.5028 64.6663 53.9961C64.6663 54.4841 64.7456 54.9094 64.904 55.272C65.0624 55.632 65.3095 55.912 65.6452 56.112C65.9808 56.312 66.4132 56.412 66.9422 56.412C67.2081 56.412 67.4363 56.3974 67.627 56.368C67.8177 56.336 67.9909 56.2987 68.1466 56.256V54.4641H66.773V53.8561Z" fill="white"/>
<path d="M66.773 53.8561H68.8314V56.692C68.5226 56.796 68.2044 56.8733 67.8767 56.924C67.5518 56.9747 67.1879 57 66.7851 57C66.1728 57 65.6559 56.8787 65.2343 56.636C64.8154 56.3933 64.4971 56.048 64.2796 55.6C64.0621 55.1494 63.9534 54.6147 63.9534 53.9961C63.9534 53.3908 64.0729 52.8628 64.3119 52.4121C64.5535 51.9615 64.9013 51.6121 65.3551 51.3642C65.8117 51.1135 66.3595 50.9882 66.9986 50.9882C67.3262 50.9882 67.6364 51.0188 67.9291 51.0802C68.2245 51.1388 68.4984 51.2228 68.7508 51.3322L68.489 51.9241C68.2715 51.8308 68.0312 51.7508 67.768 51.6842C67.5075 51.6175 67.2376 51.5841 66.9583 51.5841C66.4776 51.5841 66.0654 51.6828 65.7217 51.8801C65.3807 52.0775 65.1188 52.3561 64.9362 52.7161C64.7563 53.0761 64.6663 53.5028 64.6663 53.9961C64.6663 54.4841 64.7456 54.9094 64.904 55.272C65.0624 55.632 65.3095 55.912 65.6452 56.112C65.9808 56.312 66.4132 56.412 66.9422 56.412C67.2081 56.412 67.4363 56.3974 67.627 56.368C67.8177 56.336 67.9909 56.2987 68.1466 56.256V54.4641H66.773V53.8561Z" fill="#323232"/>
<path d="M74.0759 51.0722C74.5592 51.0722 74.958 51.1322 75.2722 51.2522C75.5891 51.3695 75.8254 51.5495 75.9812 51.7922C76.1369 52.0348 76.2148 52.3441 76.2148 52.7201C76.2148 53.0294 76.1584 53.2881 76.0456 53.4961C75.9328 53.7014 75.7851 53.8681 75.6025 53.9961C75.4199 54.1241 75.2252 54.2227 75.0184 54.2921L76.6337 56.92H75.8361L74.3941 54.4801H73.1695V56.92H72.4847V51.0722H74.0759ZM74.0356 51.6601H73.1695V53.9041H74.104C74.5847 53.9041 74.9379 53.8068 75.1634 53.6121C75.3917 53.4174 75.5058 53.1308 75.5058 52.7521C75.5058 52.3548 75.385 52.0735 75.1433 51.9081C74.9043 51.7428 74.5351 51.6601 74.0356 51.6601Z" fill="white"/>
<path d="M74.0759 51.0722C74.5592 51.0722 74.958 51.1322 75.2722 51.2522C75.5891 51.3695 75.8254 51.5495 75.9812 51.7922C76.1369 52.0348 76.2148 52.3441 76.2148 52.7201C76.2148 53.0294 76.1584 53.2881 76.0456 53.4961C75.9328 53.7014 75.7851 53.8681 75.6025 53.9961C75.4199 54.1241 75.2252 54.2227 75.0184 54.2921L76.6337 56.92H75.8361L74.3941 54.4801H73.1695V56.92H72.4847V51.0722H74.0759ZM74.0356 51.6601H73.1695V53.9041H74.104C74.5847 53.9041 74.9379 53.8068 75.1634 53.6121C75.3917 53.4174 75.5058 53.1308 75.5058 52.7521C75.5058 52.3548 75.385 52.0735 75.1433 51.9081C74.9043 51.7428 74.5351 51.6601 74.0356 51.6601Z" fill="#323232"/>
<path d="M84.9113 53.9881C84.9113 54.4387 84.8536 54.8494 84.7381 55.2201C84.6227 55.588 84.4508 55.9054 84.2225 56.172C83.9969 56.436 83.7163 56.64 83.3806 56.784C83.045 56.928 82.6556 57 82.2125 57C81.756 57 81.3572 56.928 81.0161 56.784C80.6778 56.64 80.3958 56.4347 80.1702 56.168C79.9474 55.9014 79.7795 55.5827 79.6667 55.212C79.5566 54.8414 79.5016 54.4307 79.5016 53.9801C79.5016 53.3828 79.6009 52.8588 79.7997 52.4081C79.9984 51.9575 80.2991 51.6068 80.702 51.3562C81.1075 51.1055 81.615 50.9802 82.2246 50.9802C82.8073 50.9802 83.2974 51.1042 83.6948 51.3522C84.095 51.6002 84.3971 51.9495 84.6012 52.4001C84.8079 52.8481 84.9113 53.3774 84.9113 53.9881ZM80.2226 53.9881C80.2226 54.4841 80.2938 54.9134 80.4361 55.2761C80.5784 55.6387 80.7959 55.9187 81.0886 56.116C81.384 56.3134 81.7587 56.412 82.2125 56.412C82.669 56.412 83.0423 56.3134 83.3323 56.116C83.625 55.9187 83.8412 55.6387 83.9808 55.2761C84.1205 54.9134 84.1903 54.4841 84.1903 53.9881C84.1903 53.2334 84.0305 52.6441 83.711 52.2201C83.3941 51.7935 82.8986 51.5802 82.2246 51.5802C81.7681 51.5802 81.3921 51.6775 81.0967 51.8721C80.8013 52.0668 80.5811 52.3441 80.4361 52.7041C80.2938 53.0614 80.2226 53.4894 80.2226 53.9881Z" fill="white"/>
<path d="M84.9113 53.9881C84.9113 54.4387 84.8536 54.8494 84.7381 55.2201C84.6227 55.588 84.4508 55.9054 84.2225 56.172C83.9969 56.436 83.7163 56.64 83.3806 56.784C83.045 56.928 82.6556 57 82.2125 57C81.756 57 81.3572 56.928 81.0161 56.784C80.6778 56.64 80.3958 56.4347 80.1702 56.168C79.9474 55.9014 79.7795 55.5827 79.6667 55.212C79.5566 54.8414 79.5016 54.4307 79.5016 53.9801C79.5016 53.3828 79.6009 52.8588 79.7997 52.4081C79.9984 51.9575 80.2991 51.6068 80.702 51.3562C81.1075 51.1055 81.615 50.9802 82.2246 50.9802C82.8073 50.9802 83.2974 51.1042 83.6948 51.3522C84.095 51.6002 84.3971 51.9495 84.6012 52.4001C84.8079 52.8481 84.9113 53.3774 84.9113 53.9881ZM80.2226 53.9881C80.2226 54.4841 80.2938 54.9134 80.4361 55.2761C80.5784 55.6387 80.7959 55.9187 81.0886 56.116C81.384 56.3134 81.7587 56.412 82.2125 56.412C82.669 56.412 83.0423 56.3134 83.3323 56.116C83.625 55.9187 83.8412 55.6387 83.9808 55.2761C84.1205 54.9134 84.1903 54.4841 84.1903 53.9881C84.1903 53.2334 84.0305 52.6441 83.711 52.2201C83.3941 51.7935 82.8986 51.5802 82.2246 51.5802C81.7681 51.5802 81.3921 51.6775 81.0967 51.8721C80.8013 52.0668 80.5811 52.3441 80.4361 52.7041C80.2938 53.0614 80.2226 53.4894 80.2226 53.9881Z" fill="#323232"/>
<path d="M92.907 51.0722V54.8561C92.907 55.2694 92.8224 55.6374 92.6532 55.96C92.4867 56.2827 92.2343 56.5373 91.8959 56.724C91.5576 56.908 91.1333 57 90.623 57C89.8953 57 89.3408 56.804 88.9594 56.412C88.5808 56.02 88.3915 55.496 88.3915 54.8401V51.0722H89.0803V54.8601C89.0803 55.356 89.2119 55.7387 89.475 56.008C89.7409 56.2774 90.137 56.412 90.6633 56.412C91.0232 56.412 91.3172 56.348 91.5455 56.22C91.7764 56.0894 91.947 55.908 92.0571 55.676C92.1698 55.4414 92.2262 55.1707 92.2262 54.8641V51.0722H92.907Z" fill="white"/>
<path d="M92.907 51.0722V54.8561C92.907 55.2694 92.8224 55.6374 92.6532 55.96C92.4867 56.2827 92.2343 56.5373 91.8959 56.724C91.5576 56.908 91.1333 57 90.623 57C89.8953 57 89.3408 56.804 88.9594 56.412C88.5808 56.02 88.3915 55.496 88.3915 54.8401V51.0722H89.0803V54.8601C89.0803 55.356 89.2119 55.7387 89.475 56.008C89.7409 56.2774 90.137 56.412 90.6633 56.412C91.0232 56.412 91.3172 56.348 91.5455 56.22C91.7764 56.0894 91.947 55.908 92.0571 55.676C92.1698 55.4414 92.2262 55.1707 92.2262 54.8641V51.0722H92.907Z" fill="#323232"/>
<path d="M98.236 51.0722C98.996 51.0722 99.5505 51.2202 99.8997 51.5162C100.251 51.8095 100.427 52.2308 100.427 52.7801C100.427 53.0281 100.386 53.2641 100.302 53.4881C100.222 53.7094 100.09 53.9054 99.9077 54.0761C99.7251 54.2441 99.4847 54.3774 99.1867 54.4761C98.8913 54.5721 98.5287 54.6201 98.0991 54.6201H97.3821V56.92H96.6973V51.0722H98.236ZM98.1716 51.6521H97.3821V54.0361H98.0225C98.3985 54.0361 98.7113 53.9961 98.9611 53.9161C99.2135 53.8361 99.4028 53.7068 99.5291 53.5281C99.6553 53.3468 99.7184 53.1068 99.7184 52.8081C99.7184 52.4188 99.5935 52.1295 99.3438 51.9401C99.094 51.7481 98.7033 51.6521 98.1716 51.6521Z" fill="white"/>
<path d="M98.236 51.0722C98.996 51.0722 99.5505 51.2202 99.8997 51.5162C100.251 51.8095 100.427 52.2308 100.427 52.7801C100.427 53.0281 100.386 53.2641 100.302 53.4881C100.222 53.7094 100.09 53.9054 99.9077 54.0761C99.7251 54.2441 99.4847 54.3774 99.1867 54.4761C98.8913 54.5721 98.5287 54.6201 98.0991 54.6201H97.3821V56.92H96.6973V51.0722H98.236ZM98.1716 51.6521H97.3821V54.0361H98.0225C98.3985 54.0361 98.7113 53.9961 98.9611 53.9161C99.2135 53.8361 99.4028 53.7068 99.5291 53.5281C99.6553 53.3468 99.7184 53.1068 99.7184 52.8081C99.7184 52.4188 99.5935 52.1295 99.3438 51.9401C99.094 51.7481 98.7033 51.6521 98.1716 51.6521Z" fill="#323232"/>
<path d="M110.775 51.5882C110.45 51.5882 110.158 51.6441 109.897 51.7561C109.639 51.8655 109.419 52.0255 109.236 52.2361C109.057 52.4441 108.918 52.6961 108.822 52.9921C108.725 53.2881 108.677 53.6214 108.677 53.9921C108.677 54.4827 108.753 54.9094 108.906 55.272C109.062 55.632 109.293 55.9107 109.599 56.108C109.908 56.3054 110.293 56.404 110.755 56.404C111.018 56.404 111.265 56.3827 111.496 56.34C111.73 56.2947 111.957 56.2387 112.177 56.172V56.764C111.962 56.844 111.737 56.9027 111.5 56.94C111.264 56.98 110.983 57 110.658 57C110.06 57 109.559 56.8773 109.156 56.632C108.756 56.384 108.455 56.0347 108.254 55.584C108.055 55.1334 107.956 54.6014 107.956 53.9881C107.956 53.5454 108.017 53.1414 108.141 52.7761C108.267 52.4081 108.45 52.0908 108.689 51.8241C108.93 51.5575 109.226 51.3522 109.575 51.2082C109.927 51.0615 110.329 50.9882 110.783 50.9882C111.081 50.9882 111.369 51.0175 111.645 51.0762C111.922 51.1348 112.172 51.2188 112.395 51.3282L112.121 51.9041C111.933 51.8188 111.726 51.7455 111.5 51.6842C111.277 51.6202 111.036 51.5882 110.775 51.5882Z" fill="white"/>
<path d="M110.775 51.5882C110.45 51.5882 110.158 51.6441 109.897 51.7561C109.639 51.8655 109.419 52.0255 109.236 52.2361C109.057 52.4441 108.918 52.6961 108.822 52.9921C108.725 53.2881 108.677 53.6214 108.677 53.9921C108.677 54.4827 108.753 54.9094 108.906 55.272C109.062 55.632 109.293 55.9107 109.599 56.108C109.908 56.3054 110.293 56.404 110.755 56.404C111.018 56.404 111.265 56.3827 111.496 56.34C111.73 56.2947 111.957 56.2387 112.177 56.172V56.764C111.962 56.844 111.737 56.9027 111.5 56.94C111.264 56.98 110.983 57 110.658 57C110.06 57 109.559 56.8773 109.156 56.632C108.756 56.384 108.455 56.0347 108.254 55.584C108.055 55.1334 107.956 54.6014 107.956 53.9881C107.956 53.5454 108.017 53.1414 108.141 52.7761C108.267 52.4081 108.45 52.0908 108.689 51.8241C108.93 51.5575 109.226 51.3522 109.575 51.2082C109.927 51.0615 110.329 50.9882 110.783 50.9882C111.081 50.9882 111.369 51.0175 111.645 51.0762C111.922 51.1348 112.172 51.2188 112.395 51.3282L112.121 51.9041C111.933 51.8188 111.726 51.7455 111.5 51.6842C111.277 51.6202 111.036 51.5882 110.775 51.5882Z" fill="#323232"/>
<path d="M120.789 53.9881C120.789 54.4387 120.731 54.8494 120.616 55.2201C120.5 55.588 120.328 55.9054 120.1 56.172C119.875 56.436 119.594 56.64 119.258 56.784C118.923 56.928 118.533 57 118.09 57C117.634 57 117.235 56.928 116.894 56.784C116.555 56.64 116.273 56.4347 116.048 56.168C115.825 55.9014 115.657 55.5827 115.544 55.212C115.434 54.8414 115.379 54.4307 115.379 53.9801C115.379 53.3828 115.479 52.8588 115.677 52.4081C115.876 51.9575 116.177 51.6068 116.58 51.3562C116.985 51.1055 117.493 50.9802 118.102 50.9802C118.685 50.9802 119.175 51.1042 119.573 51.3522C119.973 51.6002 120.275 51.9495 120.479 52.4001C120.686 52.8481 120.789 53.3774 120.789 53.9881ZM116.1 53.9881C116.1 54.4841 116.171 54.9134 116.314 55.2761C116.456 55.6387 116.674 55.9187 116.966 56.116C117.262 56.3134 117.636 56.412 118.09 56.412C118.547 56.412 118.92 56.3134 119.21 56.116C119.503 55.9187 119.719 55.6387 119.858 55.2761C119.998 54.9134 120.068 54.4841 120.068 53.9881C120.068 53.2334 119.908 52.6441 119.589 52.2201C119.272 51.7935 118.776 51.5802 118.102 51.5802C117.646 51.5802 117.27 51.6775 116.974 51.8721C116.679 52.0668 116.459 52.3441 116.314 52.7041C116.171 53.0614 116.1 53.4894 116.1 53.9881Z" fill="white"/>
<path d="M120.789 53.9881C120.789 54.4387 120.731 54.8494 120.616 55.2201C120.5 55.588 120.328 55.9054 120.1 56.172C119.875 56.436 119.594 56.64 119.258 56.784C118.923 56.928 118.533 57 118.09 57C117.634 57 117.235 56.928 116.894 56.784C116.555 56.64 116.273 56.4347 116.048 56.168C115.825 55.9014 115.657 55.5827 115.544 55.212C115.434 54.8414 115.379 54.4307 115.379 53.9801C115.379 53.3828 115.479 52.8588 115.677 52.4081C115.876 51.9575 116.177 51.6068 116.58 51.3562C116.985 51.1055 117.493 50.9802 118.102 50.9802C118.685 50.9802 119.175 51.1042 119.573 51.3522C119.973 51.6002 120.275 51.9495 120.479 52.4001C120.686 52.8481 120.789 53.3774 120.789 53.9881ZM116.1 53.9881C116.1 54.4841 116.171 54.9134 116.314 55.2761C116.456 55.6387 116.674 55.9187 116.966 56.116C117.262 56.3134 117.636 56.412 118.09 56.412C118.547 56.412 118.92 56.3134 119.21 56.116C119.503 55.9187 119.719 55.6387 119.858 55.2761C119.998 54.9134 120.068 54.4841 120.068 53.9881C120.068 53.2334 119.908 52.6441 119.589 52.2201C119.272 51.7935 118.776 51.5802 118.102 51.5802C117.646 51.5802 117.27 51.6775 116.974 51.8721C116.679 52.0668 116.459 52.3441 116.314 52.7041C116.171 53.0614 116.1 53.4894 116.1 53.9881Z" fill="#323232"/>
<path d="M126.92 56.92L124.942 51.7441H124.91C124.92 51.8535 124.93 51.9868 124.938 52.1441C124.946 52.3015 124.953 52.4735 124.958 52.6601C124.963 52.8441 124.966 53.0321 124.966 53.2241V56.92H124.33V51.0722H125.345L127.21 55.936H127.238L129.131 51.0722H130.138V56.92H129.461V53.1761C129.461 53.0028 129.464 52.8295 129.469 52.6561C129.475 52.4801 129.482 52.3148 129.49 52.1601C129.498 52.0028 129.506 51.8668 129.514 51.7521H129.482L127.48 56.92H126.92Z" fill="white"/>
<path d="M126.92 56.92L124.942 51.7441H124.91C124.92 51.8535 124.93 51.9868 124.938 52.1441C124.946 52.3015 124.953 52.4735 124.958 52.6601C124.963 52.8441 124.966 53.0321 124.966 53.2241V56.92H124.33V51.0722H125.345L127.21 55.936H127.238L129.131 51.0722H130.138V56.92H129.461V53.1761C129.461 53.0028 129.464 52.8295 129.469 52.6561C129.475 52.4801 129.482 52.3148 129.49 52.1601C129.498 52.0028 129.506 51.8668 129.514 51.7521H129.482L127.48 56.92H126.92Z" fill="#323232"/>
<path d="M135.515 51.0722C136.275 51.0722 136.83 51.2202 137.179 51.5162C137.531 51.8095 137.707 52.2308 137.707 52.7801C137.707 53.0281 137.665 53.2641 137.582 53.4881C137.501 53.7094 137.37 53.9054 137.187 54.0761C137.005 54.2441 136.764 54.3774 136.466 54.4761C136.171 54.5721 135.808 54.6201 135.379 54.6201H134.661V56.92H133.977V51.0722H135.515ZM135.451 51.6521H134.661V54.0361H135.302C135.678 54.0361 135.991 53.9961 136.241 53.9161C136.493 53.8361 136.682 53.7068 136.809 53.5281C136.935 53.3468 136.998 53.1068 136.998 52.8081C136.998 52.4188 136.873 52.1295 136.623 51.9401C136.373 51.7481 135.983 51.6521 135.451 51.6521Z" fill="white"/>
<path d="M135.515 51.0722C136.275 51.0722 136.83 51.2202 137.179 51.5162C137.531 51.8095 137.707 52.2308 137.707 52.7801C137.707 53.0281 137.665 53.2641 137.582 53.4881C137.501 53.7094 137.37 53.9054 137.187 54.0761C137.005 54.2441 136.764 54.3774 136.466 54.4761C136.171 54.5721 135.808 54.6201 135.379 54.6201H134.661V56.92H133.977V51.0722H135.515ZM135.451 51.6521H134.661V54.0361H135.302C135.678 54.0361 135.991 53.9961 136.241 53.9161C136.493 53.8361 136.682 53.7068 136.809 53.5281C136.935 53.3468 136.998 53.1068 136.998 52.8081C136.998 52.4188 136.873 52.1295 136.623 51.9401C136.373 51.7481 135.983 51.6521 135.451 51.6521Z" fill="#323232"/>
<path d="M144.861 56.92L144.135 55.0641H141.775L141.054 56.92H140.361L142.665 51.0482H143.282L145.569 56.92H144.861ZM143.93 54.4601L143.241 52.6161C143.225 52.5681 143.198 52.4895 143.161 52.3801C143.126 52.2708 143.09 52.1575 143.052 52.0401C143.014 51.9228 142.983 51.8281 142.959 51.7561C142.932 51.8655 142.903 51.9748 142.871 52.0841C142.841 52.1908 142.812 52.2908 142.782 52.3841C142.752 52.4748 142.727 52.5521 142.705 52.6161L142.005 54.4601H143.93Z" fill="white"/>
<path d="M144.861 56.92L144.135 55.0641H141.775L141.054 56.92H140.361L142.665 51.0482H143.282L145.569 56.92H144.861ZM143.93 54.4601L143.241 52.6161C143.225 52.5681 143.198 52.4895 143.161 52.3801C143.126 52.2708 143.09 52.1575 143.052 52.0401C143.014 51.9228 142.983 51.8281 142.959 51.7561C142.932 51.8655 142.903 51.9748 142.871 52.0841C142.841 52.1908 142.812 52.2908 142.782 52.3841C142.752 52.4748 142.727 52.5521 142.705 52.6161L142.005 54.4601H143.93Z" fill="#323232"/>
<path d="M153.219 56.92H152.429L149.219 52.0081H149.187C149.195 52.1388 149.204 52.2881 149.215 52.4561C149.226 52.6215 149.234 52.7988 149.239 52.9881C149.247 53.1748 149.251 53.3654 149.251 53.5601V56.92H148.615V51.0722H149.4L152.598 55.968H152.627C152.621 55.8747 152.615 55.7427 152.606 55.572C152.598 55.3987 152.59 55.2134 152.582 55.0161C152.577 54.8161 152.574 54.6307 152.574 54.4601V51.0722H153.219V56.92Z" fill="white"/>
<path d="M153.219 56.92H152.429L149.219 52.0081H149.187C149.195 52.1388 149.204 52.2881 149.215 52.4561C149.226 52.6215 149.234 52.7988 149.239 52.9881C149.247 53.1748 149.251 53.3654 149.251 53.5601V56.92H148.615V51.0722H149.4L152.598 55.968H152.627C152.621 55.8747 152.615 55.7427 152.606 55.572C152.598 55.3987 152.59 55.2134 152.582 55.0161C152.577 54.8161 152.574 54.6307 152.574 54.4601V51.0722H153.219V56.92Z" fill="#323232"/>
<path d="M158.556 54.0041L160.123 51.0722H160.86L158.898 54.6521V56.92H158.213V54.6841L156.248 51.0722H156.997L158.556 54.0041Z" fill="white"/>
<path d="M158.556 54.0041L160.123 51.0722H160.86L158.898 54.6521V56.92H158.213V54.6841L156.248 51.0722H156.997L158.556 54.0041Z" fill="#323232"/>
<path d="M12.0816 12.4721L16.2008 19.3016H19.0415L14.9223 12.4721H12.0816Z" fill="white"/>
<path d="M15.8792 12.4721L19.9984 19.3016H22.8391L18.7199 12.4721H15.8792Z" fill="white"/>
<path d="M37.6546 38.8498L41.7739 45.6793H44.6146L40.4953 38.8498H37.6546Z" fill="white"/>
</svg>
