<svg width="16" height="16" viewBox="0 0 16 16" fill="none" xmlns="http://www.w3.org/2000/svg">
<circle cx="6.00001" cy="8.00016" r="0.666667" fill="#727272"/>
<circle cx="8.39582" cy="8.00016" r="0.666667" fill="#727272"/>
<circle cx="10.6667" cy="8.00016" r="0.666667" fill="#727272"/>
<path d="M8.37988 2.59961C11.3622 2.59961 13.7803 5.01766 13.7803 8C13.7803 10.9823 11.3622 13.4004 8.37988 13.4004C7.48517 13.4003 6.64239 13.1831 5.90039 12.7988L5.58887 12.624L5.49902 12.5771C5.28796 12.4827 5.07336 12.4914 4.9375 12.5078C4.76409 12.5288 4.58464 12.5796 4.4209 12.6357C4.09393 12.7479 3.71449 12.9216 3.38086 13.0713C3.12782 13.1848 2.89966 13.2845 2.7041 13.3584C2.78151 13.126 2.89116 12.851 3.01465 12.5498C3.16167 12.1912 3.32867 11.7938 3.43945 11.4551C3.49494 11.2854 3.54491 11.1065 3.56934 10.9385C3.59032 10.7941 3.61049 10.5482 3.5 10.3154C3.16686 9.61454 2.98047 8.82972 2.98047 8C2.98047 5.01775 5.39767 2.59975 8.37988 2.59961Z" stroke="#727272" stroke-width="1.2"/>
</svg>
