<svg width="32" height="32" viewBox="0 0 32 32" fill="none" xmlns="http://www.w3.org/2000/svg">
<g clip-path="url(#clip0_491_21311)">
<path d="M15.9997 23.1113L11.7371 26.5212C11.6402 26.5987 11.5233 26.6473 11.4 26.6614C11.2766 26.6754 11.1518 26.6543 11.0399 26.6006C10.928 26.5468 10.8336 26.4625 10.7675 26.3574C10.7014 26.2523 10.6663 26.1307 10.6663 26.0065V23.1113H8.88857C7.94557 23.1113 7.0412 22.7367 6.37441 22.0699C5.70761 21.4031 5.33301 20.4987 5.33301 19.5557V8.88903C5.33301 7.94604 5.70762 7.04168 6.37442 6.37489C7.04121 5.7081 7.94558 5.3335 8.88857 5.3335H23.1108C24.0538 5.3335 24.9581 5.7081 25.6249 6.37489C26.2917 7.04168 26.6663 7.94604 26.6663 8.88903V19.5557C26.6663 20.4987 26.2917 21.4031 25.6249 22.0699C24.9581 22.7367 24.0538 23.1113 23.1108 23.1113H15.9997Z" stroke="white" stroke-width="1.5" stroke-linecap="round" stroke-linejoin="round"/>
<path d="M10.667 11.3335H21.3337" stroke="white" stroke-width="1.5" stroke-linecap="round" stroke-linejoin="round"/>
<path d="M10.667 16.6665H21.3337" stroke="white" stroke-width="1.5" stroke-linecap="round" stroke-linejoin="round"/>
</g>
<defs>
<clipPath id="clip0_491_21311">
<rect width="32" height="32" fill="white"/>
</clipPath>
</defs>
</svg>
