<svg width="20" height="20" viewBox="0 0 20 20" fill="none" xmlns="http://www.w3.org/2000/svg">
<path fill-rule="evenodd" clip-rule="evenodd" d="M15.417 9.87488C16.281 9.8749 17.0922 10.014 17.7107 10.2612C18.0182 10.3842 18.3092 10.5461 18.5334 10.7581C18.7439 10.9571 18.9286 11.2378 18.9528 11.59C18.9558 11.6144 18.9576 11.6392 18.9576 11.6644L18.9583 11.6663V13.9874C18.9583 13.9916 18.9589 13.996 18.9589 14.0002C18.9589 14.0035 18.9583 14.0068 18.9583 14.01V16.3342C18.9577 16.7219 18.7587 17.0282 18.5334 17.2412C18.3094 17.453 18.0187 17.6156 17.7113 17.7386C17.093 17.986 16.2815 18.125 15.417 18.125C14.5525 18.125 13.741 17.986 13.1227 17.7386C12.8153 17.6156 12.5246 17.4531 12.3005 17.2412C12.0752 17.0282 11.8757 16.722 11.8751 16.3342V11.6656L11.8843 11.524C11.9259 11.2026 12.1033 10.9444 12.3005 10.7581C12.5246 10.5463 12.8153 10.3842 13.1227 10.2612C13.7411 10.0139 14.5528 9.87488 15.417 9.87488ZM13.1251 16.2939C13.1315 16.3022 13.1413 16.316 13.1593 16.333C13.2305 16.4003 13.367 16.4897 13.5872 16.5778C14.0242 16.7526 14.6709 16.875 15.417 16.875C16.1631 16.875 16.8098 16.7526 17.2468 16.5778C17.467 16.4897 17.6035 16.4003 17.6747 16.333C17.6922 16.3164 17.7018 16.3028 17.7083 16.2946V15.4065C17.0904 15.6529 16.2803 15.7916 15.4176 15.7916C14.5541 15.7916 13.7432 15.6527 13.1251 15.4059V16.2939ZM17.7083 13.0725C17.0905 13.3191 16.2806 13.4582 15.4176 13.4583C14.5541 13.4582 13.7432 13.3193 13.1251 13.0725V13.9612C13.1313 13.9695 13.1412 13.9831 13.1593 14.0002C13.2304 14.0674 13.3669 14.1569 13.5872 14.245C14.0243 14.4199 14.6715 14.5416 15.4176 14.5416C16.1635 14.5416 16.8103 14.4198 17.2474 14.245C17.4674 14.157 17.6041 14.0674 17.6753 14.0002C17.6925 13.984 17.702 13.9703 17.7083 13.9618V13.0725ZM15.417 11.1249C14.6712 11.1249 14.0244 11.2472 13.5872 11.4221C13.367 11.5102 13.2306 11.5996 13.1593 11.6669L13.2252 11.7206C13.3039 11.7782 13.4218 11.8455 13.5872 11.9116C14.0243 12.0865 14.6715 12.2082 15.4176 12.2083C16.1636 12.2082 16.8105 12.0864 17.2474 11.9116C17.4675 11.8235 17.6037 11.7334 17.6747 11.6663L17.6088 11.6119C17.5301 11.5543 17.412 11.4875 17.2468 11.4215C16.8096 11.2467 16.1627 11.1249 15.417 11.1249Z" fill="black"/>
<path d="M15.9175 1.875C17.1375 1.87516 18.1257 2.86321 18.1257 4.08325V8.33313C18.1257 8.67821 17.8458 8.95796 17.5007 8.95813C17.1556 8.95802 16.8757 8.67824 16.8757 8.33313V4.08325C16.8757 3.55357 16.4471 3.12516 15.9175 3.125H3.25085C2.7211 3.12504 2.29265 3.55349 2.2926 4.08325V11.6669C2.29271 12.1966 2.72114 12.6251 3.25085 12.6251H10.0007C10.3458 12.6253 10.6257 12.905 10.6257 13.2501C10.6257 13.5951 10.3457 13.875 10.0007 13.8751H3.25085C2.03078 13.8751 1.0421 12.8869 1.04199 11.6669V4.08325C1.04204 2.86314 2.03074 1.87504 3.25085 1.875H15.9175Z" fill="black"/>
<path d="M5.00012 10.2081C5.34514 10.2082 5.62501 10.4881 5.62512 10.8331C5.62512 11.1782 5.3452 11.458 5.00012 11.4581H4.16699C3.82181 11.4581 3.54199 11.1783 3.54199 10.8331C3.5421 10.488 3.82188 10.2081 4.16699 10.2081H5.00012Z" fill="black"/>
<path fill-rule="evenodd" clip-rule="evenodd" d="M7.74121 6.20056C8.75833 5.18345 10.4073 5.18318 11.4241 6.20056C12.4408 7.21725 12.4407 8.86619 11.4247 9.88342L11.4241 9.88403C10.4074 10.9002 8.75891 10.8998 7.74182 9.88403C6.72522 8.86739 6.72531 7.21779 7.74121 6.20056ZM10.5403 7.08435C10.0121 6.55569 9.1544 6.55468 8.625 7.08374C8.09637 7.61311 8.097 8.47138 8.625 8.99963L8.72815 9.09241C9.26051 9.52611 10.045 9.49474 10.5403 8.99963C11.0359 8.50326 11.0664 7.71889 10.6331 7.1875L10.5403 7.08435Z" fill="black"/>
<path d="M15.0001 4.375C15.3452 4.37511 15.6251 4.65489 15.6251 5C15.6251 5.34511 15.3452 5.62489 15.0001 5.625H14.167C13.8218 5.625 13.542 5.34518 13.542 5C13.542 4.65482 13.8218 4.375 14.167 4.375H15.0001Z" fill="black"/>
</svg>
