<svg width="30" height="30" viewBox="0 0 30 30" fill="none" xmlns="http://www.w3.org/2000/svg">
<g clip-path="url(#clip0_393_14745)">
<path d="M14.8646 17.2302C16.2329 17.2302 17.342 16.121 17.342 14.7528C17.342 13.3846 16.2329 12.2754 14.8646 12.2754C13.4964 12.2754 12.3872 13.3846 12.3872 14.7528C12.3872 16.121 13.4964 17.2302 14.8646 17.2302Z" stroke="#4153E4" stroke-width="1.2741" stroke-linecap="round" stroke-linejoin="round"/>
<path d="M24.5314 22.5605C21.4284 21.9399 18.2276 22.0167 15.1581 22.7835L14.8645 22.8578C11.6018 23.6728 8.19906 23.7546 4.90163 23.0944L4.71211 23.056C4.13239 22.9408 3.71619 22.4317 3.71619 21.842V8.41572C3.71619 7.63409 4.43092 7.04819 5.19768 7.20055C8.30063 7.82114 11.5014 7.74434 14.571 6.97758L15.1569 6.83141C18.2264 6.06466 21.4284 5.98786 24.5301 6.60845L25.0157 6.70507C25.5967 6.8215 26.0129 7.32937 26.0129 7.92024V21.3466C26.0129 22.1282 25.2981 22.7141 24.5314 22.5605Z" stroke="#4153E4" stroke-width="1.2741" stroke-linecap="round" stroke-linejoin="round"/>
<path d="M22.297 10.0036C21.472 9.92801 20.6458 9.89456 19.8196 9.91562" stroke="#4153E4" stroke-width="1.2741" stroke-linecap="round" stroke-linejoin="round"/>
<path d="M7.4325 19.7312C8.25747 19.8068 9.08369 19.839 9.9099 19.8191" stroke="#4153E4" stroke-width="1.2741" stroke-linecap="round" stroke-linejoin="round"/>
</g>
<defs>
<clipPath id="clip0_393_14745">
<rect width="29.7289" height="29.7289" fill="white"/>
</clipPath>
</defs>
</svg>
