<svg width="30" height="30" viewBox="0 0 30 30" fill="none" xmlns="http://www.w3.org/2000/svg">
<g clip-path="url(#clip0_393_14697)">
<path d="M26.0129 14.8645H21.5771C20.606 14.8645 19.8194 15.6511 19.8194 16.6222V18.0616C19.8194 19.0327 20.606 19.8193 21.5771 19.8193H26.0129" stroke="#4153E4" stroke-width="1.2741" stroke-linecap="round" stroke-linejoin="round"/>
<path d="M23.5354 26.013H6.19354C4.82477 26.013 3.71613 24.9044 3.71613 23.5356V11.1486C3.71613 9.77978 4.82477 8.67114 6.19354 8.67114H23.5354C24.9042 8.67114 26.0128 9.77978 26.0128 11.1486V23.5356C26.0128 24.9044 24.9042 26.013 23.5354 26.013Z" stroke="#4153E4" stroke-width="1.2741" stroke-linecap="round" stroke-linejoin="round"/>
<path d="M17.342 8.67106L13.2629 4.59201C12.7786 4.10768 11.9945 4.10768 11.5114 4.59201L7.43231 8.67106" stroke="#4153E4" stroke-width="1.2741" stroke-linecap="round" stroke-linejoin="round"/>
<path d="M14.8645 6.19366L16.4661 4.59201C16.9505 4.10768 17.7346 4.10768 18.2177 4.59201L22.2967 8.67106" stroke="#4153E4" stroke-width="1.2741" stroke-linecap="round" stroke-linejoin="round"/>
</g>
<defs>
<clipPath id="clip0_393_14697">
<rect width="29.7289" height="29.7289" fill="white"/>
</clipPath>
</defs>
</svg>
