<svg width="40" height="40" viewBox="0 0 40 40" fill="none" xmlns="http://www.w3.org/2000/svg">
<path d="M20 26.5H6.49998C4.74998 26.5 3.33331 25.0833 3.33331 23.3333V8.16667C3.33331 6.41667 4.74998 5 6.49998 5H31.8333C33.5833 5 35 6.41667 35 8.16667V16.6667" stroke="#4153E4" stroke-width="2" stroke-linecap="round" stroke-linejoin="round"/>
<path d="M21.965 13.285C23.51 14.83 23.51 17.3367 21.965 18.8833C20.42 20.4283 17.9133 20.4283 16.3666 18.8833C14.8216 17.3383 14.8216 14.8317 16.3666 13.285C17.9133 11.7383 20.42 11.7383 21.965 13.285Z" stroke="#4153E4" stroke-width="2" stroke-linecap="round" stroke-linejoin="round"/>
<path d="M36.6666 28V23.3333M36.6666 23.3333C36.6666 22.0433 34.0533 21 30.8333 21C27.6133 21 25.0016 22.045 24.9999 23.3333V32.6667C25.0016 33.955 27.6116 35 30.8333 35C34.0549 35 36.6649 33.955 36.6666 32.6667V23.3333Z" stroke="#4153E4" stroke-width="2" stroke-linecap="round" stroke-linejoin="round"/>
<path d="M25.0016 23.3334C25.0016 24.6217 27.6133 25.6667 30.835 25.6667C34.0566 25.6667 36.6666 24.6217 36.6666 23.3334" stroke="#4153E4" stroke-width="2" stroke-linecap="round" stroke-linejoin="round"/>
<path d="M25.0016 28C25.0016 29.2883 27.6133 30.3333 30.835 30.3333C34.0566 30.3333 36.6683 29.2883 36.6683 28" stroke="#4153E4" stroke-width="2" stroke-linecap="round" stroke-linejoin="round"/>
<path d="M9.99998 21.6666H8.33331" stroke="#4153E4" stroke-width="2" stroke-linecap="round" stroke-linejoin="round"/>
<path d="M30 10H28.3333" stroke="#4153E4" stroke-width="2" stroke-linecap="round" stroke-linejoin="round"/>
</svg>
