<svg width="16" height="16" viewBox="0 0 16 16" fill="none" xmlns="http://www.w3.org/2000/svg">
<g clip-path="url(#clip0_813_4352)">
<path d="M7.23776 8.76274C6.45776 7.98274 5.86976 7.10941 5.47909 6.22341C5.39642 6.03608 5.44509 5.81674 5.58976 5.67208L6.13576 5.12674C6.58309 4.67941 6.58309 4.04674 6.19242 3.65608L5.40976 2.87341C4.88909 2.35274 4.04509 2.35274 3.52442 2.87341L3.08976 3.30808C2.59576 3.80208 2.38976 4.51474 2.52309 5.22141C2.85242 6.96341 3.86442 8.87074 5.49709 10.5034C7.12976 12.1361 9.03709 13.1481 10.7791 13.4774C11.4858 13.6107 12.1984 13.4047 12.6924 12.9107L13.1264 12.4767C13.6471 11.9561 13.6471 11.1121 13.1264 10.5914L12.3444 9.80941C11.9538 9.41874 11.3204 9.41874 10.9304 9.80941L10.3284 10.4121C10.1838 10.5567 9.96442 10.6054 9.77709 10.5227C8.89109 10.1314 8.01776 9.54274 7.23776 8.76274Z" stroke="#4153E4" stroke-linecap="round" stroke-linejoin="round"/>
</g>
<defs>
<clipPath id="clip0_813_4352">
<rect width="16" height="16" fill="white"/>
</clipPath>
</defs>
</svg>
