<svg width="20" height="20" viewBox="0 0 20 20" fill="none" xmlns="http://www.w3.org/2000/svg">
<g clip-path="url(#clip0_1394_35753)">
<path fill-rule="evenodd" clip-rule="evenodd" d="M14.1667 1.875C15.2165 1.875 16.223 2.29234 16.9653 3.03467C17.7077 3.777 18.125 4.78352 18.125 5.83333V14.1667C18.125 14.7194 18.0076 15.2595 17.7897 15.756C17.784 15.7713 17.7771 15.7859 17.7702 15.8008C17.5754 16.23 17.3051 16.6256 16.9653 16.9653C16.223 17.7077 15.2165 18.125 14.1667 18.125H5.83333C4.78352 18.125 3.777 17.7077 3.03467 16.9653C2.29234 16.223 1.875 15.2165 1.875 14.1667V5.83333C1.875 4.78352 2.29234 3.777 3.03467 3.03467C3.777 2.29234 4.78352 1.875 5.83333 1.875H14.1667ZM12.5024 12.2909C12.1353 12.2909 11.783 12.4365 11.5234 12.6961L7.34456 16.875H14.1667C14.885 16.875 15.5736 16.5895 16.0815 16.0815C16.2144 15.9487 16.331 15.8027 16.4323 15.6478L13.4814 12.6961C13.2219 12.4365 12.8695 12.2909 12.5024 12.2909ZM5 9.79085C4.81825 9.79085 4.63813 9.82629 4.47021 9.89583C4.30232 9.96539 4.1495 10.0676 4.021 10.1961L3.125 11.0921V14.1667C3.125 14.885 3.41055 15.5736 3.91846 16.0815C4.36811 16.5312 4.95944 16.8063 5.58756 16.8636L9.11702 13.3341L5.979 10.1961C5.8505 10.0676 5.69768 9.96539 5.52979 9.89583C5.36187 9.82629 5.18175 9.79085 5 9.79085ZM5.83333 3.125C5.11504 3.125 4.42637 3.41055 3.91846 3.91846C3.41055 4.42637 3.125 5.11504 3.125 5.83333V9.32454L3.13721 9.31234C3.38176 9.06778 3.67219 8.87343 3.9917 8.74105C4.31129 8.60867 4.65408 8.54085 5 8.54085C5.34592 8.54085 5.68871 8.60867 6.0083 8.74105C6.32781 8.87343 6.61824 9.06779 6.86279 9.31234L10.0008 12.4504L10.6396 11.8123C11.1336 11.3183 11.8038 11.0409 12.5024 11.0409C13.2011 11.0409 13.8712 11.3183 14.3652 11.8123L16.8701 14.3172C16.8729 14.2672 16.875 14.217 16.875 14.1667V5.83333C16.875 5.11504 16.5895 4.42637 16.0815 3.91846C15.5736 3.41055 14.885 3.125 14.1667 3.125H5.83333Z" fill="black"/>
</g>
<defs>
<clipPath id="clip0_1394_35753">
<rect width="20" height="20" fill="white"/>
</clipPath>
</defs>
</svg>
