<svg width="20" height="20" viewBox="0 0 20 20" fill="none" xmlns="http://www.w3.org/2000/svg">
<path d="M16.875 3.33333C16.875 3.21851 16.7815 3.125 16.6667 3.125H3.33333C3.21851 3.125 3.125 3.21851 3.125 3.33333V14.1667C3.125 14.2815 3.21851 14.375 3.33333 14.375H8.33333C8.46194 14.375 8.58781 14.415 8.69303 14.4889L11.875 16.7236V15C11.875 14.6548 12.1548 14.375 12.5 14.375H16.6667C16.7815 14.375 16.875 14.2815 16.875 14.1667V3.33333ZM12.5 10.2083C12.8452 10.2083 13.125 10.4882 13.125 10.8333C13.125 11.1785 12.8452 11.4583 12.5 11.4583H5.83333C5.48816 11.4583 5.20833 11.1785 5.20833 10.8333C5.20833 10.4882 5.48816 10.2083 5.83333 10.2083H12.5ZM14.1667 6.04167C14.5118 6.04167 14.7917 6.32149 14.7917 6.66667C14.7917 7.01185 14.5118 7.29167 14.1667 7.29167H5.83333C5.48816 7.29167 5.20833 7.01185 5.20833 6.66667C5.20833 6.32149 5.48816 6.04167 5.83333 6.04167H14.1667ZM18.125 14.1667C18.125 14.9718 17.4718 15.625 16.6667 15.625H13.125V17.9272C13.125 18.1605 12.9951 18.3747 12.7881 18.4823C12.5811 18.5897 12.3311 18.5732 12.1403 18.4391L8.13558 15.625H3.33333C2.52816 15.625 1.875 14.9718 1.875 14.1667V3.33333C1.875 2.52816 2.52816 1.875 3.33333 1.875H16.6667C17.4718 1.875 18.125 2.52816 18.125 3.33333V14.1667Z" fill="black"/>
</svg>
