<svg width="40" height="40" viewBox="0 0 40 40" fill="none" xmlns="http://www.w3.org/2000/svg">
<g clip-path="url(#clip0_393_14612)">
<path d="M26.2033 12.13C26.3667 12.2934 26.3667 12.5567 26.2033 12.72C26.04 12.8834 25.7767 12.8834 25.6133 12.72C25.45 12.5567 25.45 12.2934 25.6133 12.13C25.7767 11.9684 26.04 11.9684 26.2033 12.13Z" stroke="#4153E4" stroke-width="2" stroke-linecap="round" stroke-linejoin="round"/>
<path d="M22.52 5H29.8283C31.765 5 33.3333 6.56833 33.3333 8.50333V15.8117C33.3333 16.7417 32.9633 17.6317 32.3067 18.29L18.29 32.3067C16.9217 33.675 14.7033 33.675 13.335 32.3067L6.02668 24.9983C4.65834 23.63 4.65834 21.4117 6.02668 20.0433L20.0433 6.02667C20.7 5.37 21.5917 5 22.52 5Z" stroke="#4153E4" stroke-width="2" stroke-linecap="round" stroke-linejoin="round"/>
<path d="M23.3333 35H30C31.8416 35 33.3333 33.5083 33.3333 31.6667V25" stroke="#4153E4" stroke-width="2" stroke-linecap="round" stroke-linejoin="round"/>
</g>
<defs>
<clipPath id="clip0_393_14612">
<rect width="40" height="40" fill="white"/>
</clipPath>
</defs>
</svg>
