<svg width="24" height="24" viewBox="0 0 24 24" fill="none" xmlns="http://www.w3.org/2000/svg">
<g clip-path="url(#clip0_16_6791)">
<path d="M11.059 18.118C14.9576 18.118 18.118 14.9576 18.118 11.059C18.118 7.16042 14.9576 4 11.059 4C7.16042 4 4 7.16042 4 11.059C4 14.9576 7.16042 18.118 11.059 18.118Z" stroke="#727272" stroke-width="1.5" stroke-linecap="round" stroke-linejoin="round"/>
<path d="M8.23047 8.46772C8.6019 8.09628 9.04286 7.80164 9.52816 7.60063C10.0135 7.39961 10.5336 7.29614 11.0589 7.29614C11.5842 7.29614 12.1043 7.39961 12.5896 7.60063C13.0749 7.80164 13.5159 8.09628 13.8873 8.46772" stroke="#727272" stroke-width="1.5" stroke-linecap="round" stroke-linejoin="round"/>
<path d="M19.9998 20L16.0498 16.05" stroke="#727272" stroke-width="1.5" stroke-linecap="round" stroke-linejoin="round"/>
</g>
<defs>
<clipPath id="clip0_16_6791">
<rect width="24" height="24" fill="white"/>
</clipPath>
</defs>
</svg>
