<svg width="24" height="24" viewBox="0 0 24 24" fill="none" xmlns="http://www.w3.org/2000/svg">
<path d="M8.81152 18.5225C9.37482 18.5797 9.81435 19.0553 9.81445 19.6338C9.81445 20.2499 9.31434 20.7499 8.69824 20.75C8.08941 20.75 7.58451 20.2588 7.58301 19.6396V19.626C7.58471 19.0093 8.08726 18.5166 8.69727 18.5166L8.81152 18.5225ZM17.4941 19.626C17.4909 19.4435 17.3613 19.2922 17.1885 19.2568L17.1113 19.249C16.8992 19.249 16.7267 19.4207 16.7266 19.6328H17.4766L17.1113 19.6338L16.7266 19.6367C16.7276 19.8466 16.8988 20.0166 17.1094 20.0166C17.3176 20.0164 17.4924 19.8486 17.4941 19.6328V19.626ZM8.69824 19.25C8.48675 19.25 8.31562 19.4206 8.31445 19.6318L8.33301 19.6328H8.31445V19.6338L8.32227 19.7109C8.35801 19.8853 8.51243 20.0166 8.69727 20.0166C8.90527 20.0165 9.07976 19.8492 9.08203 19.6338C9.08079 19.4445 8.94685 19.2929 8.77441 19.2578L8.69824 19.25ZM5.22363 3.25L5.35352 3.26172C5.64942 3.31348 5.8915 3.53905 5.95703 3.84082L6.47949 6.25H18.5C19.5682 6.25 20.3684 7.19051 20.2363 8.21875L20.1973 8.4248L18.8496 13.8174C18.5854 14.8725 17.7278 15.6661 16.6699 15.8564L16.4561 15.8867L9.63965 16.5684C8.3309 16.6985 7.1259 15.8865 6.74121 14.6533L6.6748 14.4014L5.14062 7.1582V7.15918L4.61914 4.75H3.5C3.08579 4.75 2.75 4.41421 2.75 4C2.75 3.58579 3.08579 3.25 3.5 3.25H5.22363ZM8.14258 14.0908L8.17285 14.2051C8.33577 14.7276 8.82309 15.0848 9.37207 15.082L9.49121 15.0752L16.3066 14.3936L16.4033 14.3799C16.884 14.2936 17.2742 13.9335 17.3945 13.4531L18.7422 8.06152L18.75 8.00195C18.7515 7.86642 18.6424 7.75 18.5 7.75H6.79883L8.14258 14.0908ZM18.2217 19.7471C18.1646 20.3096 17.6889 20.7489 17.1113 20.749C16.5336 20.749 16.0581 20.3097 16.001 19.7471L15.9951 19.6328C15.9931 19.0129 16.4971 18.5166 17.1094 18.5166L17.2227 18.5225C17.7856 18.5792 18.2235 19.0534 18.2266 19.6289V19.6328L18.2217 19.7471Z" fill="white"/>
</svg>
