<svg width="12" height="11" viewBox="0 0 12 11" fill="none" xmlns="http://www.w3.org/2000/svg">
<path d="M4.58019 0.690965C4.87955 -0.230346 6.18295 -0.230344 6.48231 0.690967L7.10285 2.6008C7.23672 3.01282 7.62068 3.29178 8.0539 3.29178H10.062C11.0307 3.29178 11.4335 4.5314 10.6498 5.1008L9.0252 6.28114C8.67472 6.53578 8.52806 6.98715 8.66193 7.39917L9.28247 9.309C9.58183 10.2303 8.52735 10.9964 7.74363 10.427L6.11903 9.24669C5.76855 8.99205 5.29395 8.99205 4.94346 9.24669L3.31886 10.427C2.53515 10.9964 1.48067 10.2303 1.78003 9.309L2.40057 7.39917C2.53444 6.98715 2.38778 6.53578 2.03729 6.28114L0.412695 5.1008C-0.371019 4.53139 0.0317581 3.29178 1.00048 3.29178H3.0086C3.44182 3.29178 3.82578 3.01282 3.95965 2.6008L4.58019 0.690965Z" fill="#FF8D28"/>
</svg>
