<svg width="12" height="11" viewBox="0 0 12 11" fill="none" xmlns="http://www.w3.org/2000/svg">
<path d="M4.58166 0.690965C4.88101 -0.230346 6.18442 -0.230344 6.48377 0.690967L7.10431 2.6008C7.23819 3.01282 7.62214 3.29178 8.05537 3.29178H10.0635C11.0322 3.29178 11.435 4.5314 10.6513 5.1008L9.02667 6.28114C8.67618 6.53578 8.52952 6.98715 8.6634 7.39917L9.28394 9.309C9.58329 10.2303 8.52881 10.9964 7.7451 10.427L6.1205 9.24669C5.77001 8.99205 5.29542 8.99205 4.94493 9.24669L3.32033 10.427C2.53662 10.9964 1.48214 10.2303 1.78149 9.309L2.40203 7.39917C2.5359 6.98715 2.38925 6.53578 2.03876 6.28114L0.41416 5.1008C-0.369554 4.53139 0.0332229 3.29178 1.00195 3.29178H3.01006C3.44329 3.29178 3.82724 3.01282 3.96112 2.6008L4.58166 0.690965Z" fill="#4153E4"/>
</svg>
