<svg width="40" height="40" viewBox="0 0 40 40" fill="none" xmlns="http://www.w3.org/2000/svg">
<circle cx="20" cy="20" r="20" fill="#25D366"/>
<g clip-path="url(#clip0_1409_35391)">
<path d="M18.8566 21.1441C17.6866 19.9741 16.8046 18.6641 16.2186 17.3351C16.0946 17.0541 16.1676 16.7251 16.3846 16.5081L17.2036 15.6901C17.8746 15.0191 17.8746 14.0701 17.2886 13.4841L16.1146 12.3101C15.3336 11.5291 14.0676 11.5291 13.2866 12.3101L12.6346 12.9621C11.8936 13.7031 11.5846 14.7721 11.7846 15.8321C12.2786 18.4451 13.7966 21.3061 16.2456 23.7551C18.6946 26.2041 21.5556 27.7221 24.1686 28.2161C25.2286 28.4161 26.2976 28.1071 27.0386 27.3661L27.6896 26.7151C28.4706 25.9341 28.4706 24.6681 27.6896 23.8871L26.5166 22.7141C25.9306 22.1281 24.9806 22.1281 24.3956 22.7141L23.4926 23.6181C23.2756 23.8351 22.9466 23.9081 22.6656 23.7841C21.3366 23.1971 20.0266 22.3141 18.8566 21.1441Z" stroke="white" stroke-width="1.5" stroke-linecap="round" stroke-linejoin="round"/>
</g>
<defs>
<clipPath id="clip0_1409_35391">
<rect width="24" height="24" fill="white" transform="translate(8 8)"/>
</clipPath>
</defs>
</svg>
