<svg width="30" height="30" viewBox="0 0 30 30" fill="none" xmlns="http://www.w3.org/2000/svg">
<g clip-path="url(#clip0_393_14708)">
<path d="M18.3428 16.8367L14.4756 15.2884V9.77612" stroke="#4153E4" stroke-width="1.2741" stroke-linecap="round" stroke-linejoin="round"/>
<path d="M3.71619 6.81323V10.5293H7.4323" stroke="#4153E4" stroke-width="1.2741" stroke-linecap="round" stroke-linejoin="round"/>
<path d="M3.7887 16.1034C4.09334 18.7933 5.36754 21.2801 7.37294 23.0985C9.37834 24.9169 11.9776 25.9425 14.6843 25.9833C17.3911 26.024 20.0201 25.0773 22.0793 23.3201C24.1386 21.5629 25.4871 19.1156 25.8727 16.4361C26.2582 13.7566 25.6543 11.0284 24.174 8.76191C22.6937 6.49542 20.4383 4.84589 17.8298 4.12189C15.2213 3.3979 12.4384 3.64904 10.0017 4.82834C7.56497 6.00764 5.64136 8.03431 4.59072 10.5292" stroke="#4153E4" stroke-width="1.2741" stroke-linecap="round" stroke-linejoin="round"/>
</g>
<defs>
<clipPath id="clip0_393_14708">
<rect width="29.7289" height="29.7289" fill="white"/>
</clipPath>
</defs>
</svg>
