<svg width="159" height="59" viewBox="0 0 159 59" fill="none" xmlns="http://www.w3.org/2000/svg">
<path d="M5.33203 19.6933H4.33203L4.33203 18.8081L5.21071 18.7007L5.33203 19.6933ZM5.33203 47.6593C8.27755 47.6593 10.6654 50.0472 10.6654 52.9927C10.6654 55.9382 8.27755 58.326 5.33203 58.326C2.38651 58.326 -0.00130224 55.9382 -0.00130224 52.9927C-0.00130224 50.0472 2.38651 47.6593 5.33203 47.6593ZM158.332 0.992676L158.453 1.98529L5.45335 20.6859L5.33203 19.6933L5.21071 18.7007L158.211 6.27637e-05L158.332 0.992676ZM5.33203 19.6933H6.33203L6.33203 52.9927H5.33203H4.33203L4.33203 19.6933H5.33203Z" fill="#4153E4"/>
</svg>
