<svg width="172" height="82" viewBox="0 0 172 82" fill="none" xmlns="http://www.w3.org/2000/svg">
<path d="M171.021 69.3391C171.021 72.2846 168.633 74.6724 165.688 74.6724C162.742 74.6724 160.354 72.2846 160.354 69.3391C160.354 66.3936 162.742 64.0058 165.688 64.0058C168.633 64.0058 171.021 66.3936 171.021 69.3391ZM84.3849 1.33911L83.6962 0.614058L84.3426 7.56979e-05L85.0265 0.572041L84.3849 1.33911ZM165.688 69.3391L165.046 70.1062L83.7433 2.10618L84.3849 1.33911L85.0265 0.572041L166.329 68.572L165.688 69.3391ZM84.3849 1.33911L85.0736 2.06416L1.37619 81.5642L0.6875 80.8391L-0.00119019 80.1141L83.6962 0.614058L84.3849 1.33911Z" fill="#4153E4"/>
</svg>
