<svg width="115" height="102" viewBox="0 0 115 102" fill="none" xmlns="http://www.w3.org/2000/svg">
<path d="M5.33203 52.3181H4.33203V52.9703L4.9289 53.2332L5.33203 52.3181ZM5.33203 10.6666C8.27755 10.6666 10.6654 8.27877 10.6654 5.33325C10.6654 2.38773 8.27755 -7.62939e-05 5.33203 -7.62939e-05C2.38651 -7.62939e-05 -0.00130224 2.38773 -0.00130224 5.33325C-0.00130224 8.27877 2.38651 10.6666 5.33203 10.6666ZM114.332 100.333L114.735 99.4181L5.73516 51.4029L5.33203 52.3181L4.9289 53.2332L113.929 101.248L114.332 100.333ZM5.33203 52.3181H6.33203L6.33203 5.33325H5.33203H4.33203L4.33203 52.3181H5.33203Z" fill="#4153E4"/>
</svg>
