<svg width="102" height="193" viewBox="0 0 102 193" fill="none" xmlns="http://www.w3.org/2000/svg">
<path d="M5.33203 83.971H4.33203V84.3488L4.5818 84.6322L5.33203 83.971ZM5.33203 10.6666C8.27755 10.6666 10.6654 8.27878 10.6654 5.33325C10.6654 2.38773 8.27755 -7.62939e-05 5.33203 -7.62939e-05C2.38651 -7.62939e-05 -0.00130224 2.38773 -0.00130224 5.33325C-0.00130224 8.27878 2.38651 10.6666 5.33203 10.6666ZM100.832 192.333L101.582 191.672L6.08226 83.3098L5.33203 83.971L4.5818 84.6322L100.082 192.994L100.832 192.333ZM5.33203 83.971H6.33203L6.33203 5.33325H5.33203H4.33203L4.33203 83.971H5.33203Z" fill="#4153E4"/>
</svg>
