<svg width="20" height="21" viewBox="0 0 20 21" fill="none" xmlns="http://www.w3.org/2000/svg">
<path d="M18 1.75C18 1.61221 17.8878 1.5 17.75 1.5H1.75C1.61221 1.5 1.5 1.61221 1.5 1.75V14.75C1.5 14.8878 1.61221 15 1.75 15H7.75C7.90433 15 8.05537 15.048 8.18164 15.1367L12 17.8184V15.75C12 15.3358 12.3358 15 12.75 15H17.75C17.8878 15 18 14.8878 18 14.75V1.75ZM12.75 10C13.1642 10 13.5 10.3358 13.5 10.75C13.5 11.1642 13.1642 11.5 12.75 11.5H4.75C4.33579 11.5 4 11.1642 4 10.75C4 10.3358 4.33579 10 4.75 10H12.75ZM14.75 5C15.1642 5 15.5 5.33579 15.5 5.75C15.5 6.16421 15.1642 6.5 14.75 6.5H4.75C4.33579 6.5 4 6.16421 4 5.75C4 5.33579 4.33579 5 4.75 5H14.75ZM19.5 14.75C19.5 15.7162 18.7162 16.5 17.75 16.5H13.5V19.2627C13.5 19.5426 13.3441 19.7997 13.0957 19.9287C12.8474 20.0577 12.5473 20.0378 12.3184 19.877L7.5127 16.5H1.75C0.783786 16.5 0 15.7162 0 14.75V1.75C0 0.783786 0.783786 0 1.75 0H17.75C18.7162 0 19.5 0.783786 19.5 1.75V14.75Z" fill="#4153E4"/>
</svg>
