<svg width="181" height="181" viewBox="0 0 181 181" fill="none" xmlns="http://www.w3.org/2000/svg">
<path d="M5.33203 71.1818H4.33203V70.5057L4.95948 70.2538L5.33203 71.1818ZM5.33203 170.095C8.27755 170.095 10.6654 172.482 10.6654 175.428C10.6654 178.374 8.27755 180.761 5.33203 180.761C2.38651 180.761 -0.00130224 178.374 -0.00130224 175.428C-0.00130224 172.482 2.38651 170.095 5.33203 170.095ZM180.332 0.927979L180.705 1.85599L5.70458 72.1098L5.33203 71.1818L4.95948 70.2538L179.959 -3.33786e-05L180.332 0.927979ZM5.33203 71.1818H6.33203L6.33203 175.428H5.33203H4.33203L4.33203 71.1818H5.33203Z" fill="#4153E4"/>
</svg>
