<svg width="24" height="24" viewBox="0 0 24 24" fill="none" xmlns="http://www.w3.org/2000/svg">
<path d="M12 24C5.37258 24 0 18.6274 0 12C0 5.37258 5.37258 0 12 0C18.6274 0 24 5.37258 24 12C24 18.6274 18.6274 24 12 24Z" fill="#4153E4"/>
<path d="M15.288 6.30856C13.1099 5.89715 10.8482 5.89715 8.67016 6.30856C7.70681 6.51427 6.49215 7.66622 6.28272 8.57133C5.90576 10.3404 5.90576 12.1506 6.28272 13.9197C6.53403 14.8248 7.74869 15.9768 8.67016 16.1825C8.71204 16.1825 8.75392 16.2236 8.75392 16.2648V18.8567C8.75392 18.9801 8.92147 19.0624 9.00524 18.9389L10.2618 17.6636C10.2618 17.6636 11.267 16.635 11.4346 16.4705C11.4346 16.4705 11.4764 16.4293 11.5183 16.4293C12.7749 16.4705 14.0733 16.347 15.3298 16.1413C16.2932 15.9356 17.5079 14.7837 17.7173 13.8786C18.0942 12.1095 18.0942 10.2993 17.7173 8.53019C17.466 7.66622 16.2513 6.51427 15.288 6.30856ZM15.3298 14.0431C15.1204 14.4545 14.8691 14.7837 14.4503 14.9894C14.3246 15.0305 14.199 15.0717 14.0733 15.1128C13.9058 15.0717 13.7801 15.0305 13.6545 14.9894C12.3141 14.4545 11.0576 13.714 10.0524 12.6443C9.50785 12.0272 9.04712 11.3278 8.67016 10.5873C8.50262 10.217 8.33508 9.88785 8.20942 9.51758C8.08377 9.18845 8.29319 8.85932 8.50262 8.61247C8.71204 8.36563 8.96335 8.20106 9.25654 8.07764C9.46597 7.95421 9.67539 8.0365 9.84293 8.20106C10.178 8.61247 10.5131 9.02389 10.7644 9.47644C10.9319 9.76443 10.8901 10.0936 10.5969 10.2993C10.5131 10.3404 10.4712 10.3816 10.3874 10.4638C10.3455 10.505 10.2618 10.5461 10.2199 10.6284C10.1361 10.7518 10.1361 10.8752 10.178 10.9987C10.5131 11.9449 11.1414 12.6855 12.1047 13.0969C12.2722 13.1792 12.3979 13.2203 12.6073 13.2203C12.9005 13.1792 13.0262 12.85 13.2356 12.6855C13.445 12.5209 13.6963 12.5209 13.9476 12.6443C14.1571 12.7677 14.3665 12.9323 14.6178 13.0969C14.8272 13.2614 15.0366 13.3849 15.2461 13.5494C15.3717 13.6317 15.4136 13.8374 15.3298 14.0431ZM13.5707 10.9575C13.4869 10.9575 13.5288 10.9575 13.5707 10.9575C13.4031 10.9575 13.3613 10.8752 13.3194 10.7518C13.3194 10.6695 13.3194 10.5461 13.2775 10.4638C13.2356 10.2993 13.1518 10.1347 12.9843 10.0113C12.9005 9.97014 12.8168 9.929 12.733 9.88785C12.6073 9.84671 12.5236 9.84671 12.3979 9.84671C12.2723 9.80557 12.2304 9.72329 12.2304 9.59987C12.2304 9.51758 12.356 9.4353 12.4398 9.4353C13.1099 9.47644 13.6126 9.84671 13.6963 10.6284C13.6963 10.6695 13.6963 10.7518 13.6963 10.793C13.6963 10.8752 13.6544 10.9575 13.5707 10.9575ZM13.1518 9.14731C12.9424 9.06503 12.733 8.98275 12.4817 8.9416C12.3979 8.9416 12.2723 8.90046 12.1885 8.90046C12.0628 8.90046 11.9791 8.81818 12.0209 8.69476C12.0209 8.57133 12.1047 8.48905 12.2304 8.53019C12.6492 8.57133 13.0262 8.65362 13.4031 8.81818C14.1571 9.18845 14.5759 9.80557 14.7016 10.6284C14.7016 10.6695 14.7016 10.7107 14.7016 10.7518C14.7016 10.8341 14.7016 10.9164 14.7016 11.0398C14.7016 11.081 14.7016 11.1221 14.7016 11.1632C14.6597 11.3278 14.3665 11.3689 14.3246 11.1632C14.3246 11.1221 14.2827 11.0398 14.2827 10.9987C14.2827 10.6284 14.199 10.2581 14.0314 9.929C13.7801 9.55872 13.4869 9.31188 13.1518 9.14731ZM15.4136 11.6158C15.288 11.6158 15.2042 11.4924 15.2042 11.3689C15.2042 11.1221 15.1623 10.8752 15.1204 10.6284C14.9529 9.31188 13.8639 8.2422 12.5654 8.03649C12.356 7.99535 12.1466 7.99535 11.9791 7.95421C11.8534 7.95421 11.6859 7.95421 11.644 7.78965C11.6021 7.66622 11.7277 7.5428 11.8534 7.5428C11.8953 7.5428 11.9372 7.5428 11.9372 7.5428C12.0209 7.5428 13.6545 7.58394 11.9372 7.5428C13.6963 7.58394 15.1623 8.7359 15.4555 10.4638C15.4974 10.7518 15.5393 11.0398 15.5393 11.3689C15.623 11.4924 15.5393 11.6158 15.4136 11.6158Z" fill="white"/>
</svg>
