<svg width="32" height="32" viewBox="0 0 32 32" fill="none" xmlns="http://www.w3.org/2000/svg">
<rect width="32" height="32" rx="16" fill="#7360F2"/>
<g clip-path="url(#clip0_1432_11363)">
<path d="M23.1462 9.15397C22.6823 8.72598 20.8079 7.36526 16.6328 7.34677C16.6328 7.34677 11.7092 7.04987 9.309 9.25145C7.97293 10.5878 7.50292 12.5432 7.45334 14.9674C7.40376 17.3917 7.33962 21.9349 11.719 23.1668H11.7232L11.7204 25.0465C11.7204 25.0465 11.6924 25.8076 12.1935 25.9627C12.7996 26.151 13.1553 25.5726 13.734 24.9491C14.0516 24.6068 14.4903 24.104 14.8208 23.7197C17.8159 23.9718 20.1194 23.3956 20.3811 23.3105C20.9858 23.1144 24.4078 22.6761 24.9643 18.1331C25.5388 13.4507 24.6865 10.4889 23.1462 9.15397ZM23.6537 17.7973C23.184 21.5904 20.4085 21.8288 19.8968 21.9929C19.6791 22.0629 17.656 22.5663 15.1118 22.4002C15.1118 22.4002 13.2161 24.6872 12.624 25.2818C12.5315 25.3748 12.4229 25.4123 12.3503 25.3939C12.2484 25.3689 12.2204 25.2482 12.2215 25.0717C12.2232 24.8197 12.2377 21.9481 12.2377 21.9481C8.53312 20.9196 8.74908 17.0528 8.7911 15.0279C8.83311 13.0031 9.21349 11.3444 10.3434 10.2287C12.3736 8.38986 16.5557 8.66464 16.5557 8.66464C20.0875 8.68005 21.7799 9.74358 22.1723 10.0999C23.4753 11.2155 24.1391 13.8851 23.6537 17.7962V17.7973Z" fill="white"/>
<path d="M18.3516 14.8615C18.3056 13.9355 17.8353 13.4491 16.9404 13.4025" stroke="white" stroke-width="0.354186" stroke-linecap="round" stroke-linejoin="round"/>
<path d="M19.5629 15.2677C19.5815 14.405 19.326 13.6842 18.7962 13.1053C18.264 12.5244 17.5274 12.2045 16.582 12.1353" stroke="white" stroke-width="0.354186" stroke-linecap="round" stroke-linejoin="round"/>
<path d="M20.8033 15.7528C20.792 14.2558 20.3446 13.0768 19.4614 12.2157C18.5781 11.3547 17.4797 10.9196 16.166 10.9105" stroke="white" stroke-width="0.354186" stroke-linecap="round" stroke-linejoin="round"/>
<path d="M16.9864 18.0242C16.9864 18.0242 17.3183 18.0522 17.497 17.832L17.8454 17.3937C18.0135 17.1763 18.4191 17.0377 18.8163 17.2589C19.1139 17.4287 19.4029 17.6132 19.682 17.8119C19.9456 18.0057 20.4854 18.4561 20.4871 18.4561C20.7442 18.6732 20.8036 18.9919 20.6285 19.328C20.6285 19.33 20.6271 19.3334 20.6271 19.335C20.4343 19.6693 20.1895 19.9707 19.9019 20.228C19.8986 20.2297 19.8986 20.2314 19.8955 20.233C19.6456 20.4418 19.4002 20.5605 19.1591 20.589C19.1236 20.5953 19.0875 20.5975 19.0515 20.5958C18.9452 20.5968 18.8395 20.5805 18.7384 20.5476L18.7306 20.5361C18.3591 20.4314 17.739 20.1692 16.7063 19.5995C16.1087 19.2737 15.5397 18.8978 15.0055 18.476C14.7378 18.2647 14.4824 18.0382 14.2406 17.7976L14.2148 17.7718L14.189 17.746L14.1632 17.72C14.1546 17.7116 14.1462 17.7029 14.1375 17.6942C13.8969 17.4524 13.6704 17.197 13.4591 16.9293C13.0373 16.3951 12.6615 15.8263 12.3356 15.2288C11.7659 14.1958 11.5037 13.5762 11.3989 13.2042L11.3875 13.1964C11.3546 13.0953 11.3385 12.9895 11.3396 12.8832C11.3376 12.8473 11.3398 12.8112 11.346 12.7757C11.3761 12.5352 11.4949 12.2896 11.7026 12.039C11.7043 12.0359 11.7059 12.0359 11.7076 12.0326C11.9648 11.745 12.2663 11.5003 12.6006 11.3077C12.6023 11.3077 12.6056 11.306 12.6076 11.306C12.9437 11.1309 13.2624 11.1903 13.4792 11.446C13.4809 11.4477 13.9305 11.9875 14.1235 12.251C14.3221 12.5305 14.5067 12.8198 14.6764 13.1177C14.8977 13.5146 14.759 13.921 14.5417 14.0885L14.1033 14.4369C13.882 14.6156 13.9112 14.9476 13.9112 14.9476C13.9112 14.9476 14.5604 17.4049 16.9864 18.0242Z" fill="white"/>
</g>
<defs>
<clipPath id="clip0_1432_11363">
<rect width="17.702" height="18.6667" fill="white" transform="translate(7.44238 7.33331)"/>
</clipPath>
</defs>
</svg>
