<svg width="32" height="33" viewBox="0 0 32 33" fill="none" xmlns="http://www.w3.org/2000/svg">
<g clip-path="url(#clip0_491_21289)">
<path d="M26.667 28.1895H5.33366C4.98344 28.1896 4.63663 28.1206 4.31306 27.9867C3.98948 27.8527 3.69547 27.6563 3.44783 27.4086C3.20018 27.161 3.00376 26.867 2.86978 26.5434C2.73581 26.2198 2.6669 25.873 2.66699 25.5228V6.85612C2.6669 6.5059 2.73581 6.1591 2.86978 5.83552C3.00376 5.51194 3.20018 5.21793 3.44783 4.97029C3.69547 4.72264 3.98948 4.52622 4.31306 4.39224C4.63663 4.25827 4.98344 4.18936 5.33366 4.18945H26.667C27.0172 4.18936 27.364 4.25827 27.6876 4.39224C28.0112 4.52622 28.3052 4.72264 28.5528 4.97029C28.8005 5.21793 28.9969 5.51194 29.1309 5.83552C29.2648 6.1591 29.3338 6.5059 29.3337 6.85612V25.5228C29.3338 25.873 29.2648 26.2198 29.1309 26.5434C28.9969 26.867 28.8005 27.161 28.5528 27.4086C28.3052 27.6563 28.0112 27.8527 27.6876 27.9867C27.364 28.1206 27.0172 28.1896 26.667 28.1895Z" stroke="white" stroke-width="1.5" stroke-linecap="round" stroke-linejoin="round"/>
<path d="M2.66699 10.856H29.3337" stroke="white" stroke-width="1.5" stroke-linecap="round" stroke-linejoin="round"/>
<path d="M8 10.8561L10.6667 4.18945" stroke="white" stroke-width="1.5" stroke-linecap="round" stroke-linejoin="round"/>
<path d="M14.667 10.8561L17.3337 4.18945" stroke="white" stroke-width="1.5" stroke-linecap="round" stroke-linejoin="round"/>
<path d="M21.333 10.8561L23.9997 4.18945" stroke="white" stroke-width="1.5" stroke-linecap="round" stroke-linejoin="round"/>
<path d="M13.4971 21.9884V17.0575C13.4971 16.9054 13.5372 16.7559 13.6133 16.6241C13.6895 16.4923 13.7989 16.3829 13.9307 16.3069C14.0626 16.2309 14.2121 16.1909 14.3642 16.1909C14.5164 16.191 14.6659 16.2311 14.7977 16.3073L19.064 18.7727C19.1957 18.8488 19.305 18.9581 19.381 19.0898C19.4571 19.2215 19.4971 19.3709 19.4971 19.523C19.4971 19.675 19.4571 19.8244 19.381 19.9561C19.305 20.0878 19.1957 20.1972 19.064 20.2733L14.7977 22.7387C14.6659 22.8149 14.5164 22.855 14.3643 22.8551C14.2121 22.8551 14.0626 22.8151 13.9307 22.7391C13.7989 22.663 13.6895 22.5536 13.6133 22.4219C13.5372 22.2901 13.4971 22.1406 13.4971 21.9884Z" stroke="white" stroke-width="1.5" stroke-linecap="round" stroke-linejoin="round"/>
</g>
<defs>
<clipPath id="clip0_491_21289">
<rect width="32" height="32" fill="white" transform="translate(0 0.189453)"/>
</clipPath>
</defs>
</svg>
