<svg width="40" height="40" viewBox="0 0 40 40" fill="none" xmlns="http://www.w3.org/2000/svg">
<rect width="40" height="40" rx="20" fill="#7360F2"/>
<g clip-path="url(#clip0_1409_35432)">
<path d="M28.933 11.4425C28.3532 10.9075 26.0102 9.2066 20.7913 9.1835C20.7913 9.1835 14.6368 8.81236 11.6366 11.5643C9.96646 13.2348 9.37895 15.679 9.31698 18.7093C9.25501 21.7397 9.17483 27.4187 14.649 28.9585H14.6543L14.6508 31.3082C14.6508 31.3082 14.6158 32.2595 15.2421 32.4535C15.9998 32.6887 16.4445 31.9657 17.1678 31.1864C17.5649 30.7585 18.1132 30.13 18.5263 29.6497C22.2702 29.9648 25.1496 29.2446 25.4766 29.1381C26.2325 28.893 30.51 28.3451 31.2057 22.6664C31.9238 16.8134 30.8584 13.1112 28.933 11.4425ZM29.5675 22.2466C28.9803 26.988 25.5109 27.286 24.8713 27.4911C24.5992 27.5787 22.0703 28.2078 18.8901 28.0002C18.8901 28.0002 16.5204 30.859 15.7803 31.6023C15.6647 31.7185 15.5289 31.7655 15.4382 31.7424C15.3108 31.7112 15.2757 31.5603 15.2771 31.3397C15.2792 31.0246 15.2975 27.4351 15.2975 27.4351C10.6667 26.1495 10.9367 21.316 10.9892 18.785C11.0417 16.2539 11.5172 14.1805 12.9296 12.7859C15.4673 10.4874 20.695 10.8308 20.695 10.8308C25.1097 10.8501 27.2251 12.1795 27.7157 12.6249C29.3444 14.0194 30.1742 17.3564 29.5675 22.2452V22.2466Z" fill="white"/>
<path d="M22.9393 18.5769C22.8819 17.4194 22.2939 16.8115 21.1754 16.7531" stroke="white" stroke-width="0.354186" stroke-linecap="round" stroke-linejoin="round"/>
<path d="M24.4537 19.0846C24.4771 18.0062 24.1577 17.1052 23.4955 16.3816C22.8302 15.6555 21.9094 15.2556 20.7277 15.1691" stroke="white" stroke-width="0.354186" stroke-linecap="round" stroke-linejoin="round"/>
<path d="M26.004 19.6911C25.9898 17.8198 25.4306 16.346 24.3266 15.2697C23.2225 14.1934 21.8495 13.6496 20.2074 13.6381" stroke="white" stroke-width="0.354186" stroke-linecap="round" stroke-linejoin="round"/>
<path d="M21.2339 22.5303C21.2339 22.5303 21.6488 22.5653 21.8722 22.2901L22.3078 21.7421C22.5178 21.4704 23.0248 21.2971 23.5213 21.5737C23.8934 21.7859 24.2545 22.0166 24.6035 22.2649C24.933 22.5072 25.6077 23.0702 25.6098 23.0702C25.9312 23.3415 26.0054 23.7399 25.7866 24.1601C25.7866 24.1625 25.7849 24.1667 25.7849 24.1688C25.5438 24.5867 25.2379 24.9634 24.8784 25.285C24.8742 25.2871 24.8742 25.2892 24.8703 25.2913C24.558 25.5523 24.2512 25.7006 23.9499 25.7364C23.9055 25.7441 23.8604 25.7469 23.8154 25.7448C23.6825 25.746 23.5503 25.7257 23.424 25.6845L23.4142 25.6702C22.9499 25.5392 22.1747 25.2115 20.8838 24.4994C20.1368 24.0921 19.4256 23.6223 18.7579 23.095C18.4232 22.8309 18.1039 22.5477 17.8017 22.247L17.7695 22.2148L17.7373 22.1826L17.705 22.15C17.6942 22.1395 17.6837 22.1287 17.6728 22.1178C17.3721 21.8156 17.089 21.4963 16.8248 21.1616C16.2976 20.494 15.8278 19.7829 15.4205 19.036C14.7083 17.7448 14.3806 16.9703 14.2497 16.5053L14.2353 16.4955C14.1943 16.3692 14.174 16.2369 14.1754 16.1041C14.173 16.0591 14.1757 16.014 14.1835 15.9696C14.2211 15.669 14.3696 15.3621 14.6292 15.0488C14.6313 15.045 14.6334 15.045 14.6355 15.0408C14.957 14.6813 15.3338 14.3754 15.7517 14.1346C15.7538 14.1346 15.758 14.1325 15.7604 14.1325C16.1806 13.9137 16.579 13.9879 16.85 14.3076C16.8521 14.3097 17.4141 14.9844 17.6553 15.3139C17.9036 15.6632 18.1343 16.0247 18.3465 16.3971C18.6231 16.8933 18.4498 17.4013 18.1781 17.6107L17.6301 18.0462C17.3535 18.2696 17.3899 18.6845 17.3899 18.6845C17.3899 18.6845 18.2015 21.7561 21.2339 22.5303Z" fill="white"/>
</g>
<defs>
<clipPath id="clip0_1409_35432">
<rect width="22.1275" height="23.3333" fill="white" transform="translate(9.30338 9.16669)"/>
</clipPath>
</defs>
</svg>
