<svg width="24" height="24" viewBox="0 0 24 24" fill="none" xmlns="http://www.w3.org/2000/svg">
<path d="M0 12C0 18.6274 5.37258 24 12 24C18.6274 24 24 18.6274 24 12C24 5.37258 18.6274 0 12 0C5.37258 0 0 5.37258 0 12Z" fill="#4153E4"/>
<path d="M16.2439 7.75C15.115 6.625 13.6098 6 12.0209 6C8.71777 6 6.04181 8.66667 6.04181 11.9583C6.04181 13 6.33449 14.0417 6.83624 14.9167L6 18L9.1777 17.1667C10.0557 17.625 11.0174 17.875 12.0209 17.875C15.324 17.875 18 15.2083 18 11.9167C17.9582 10.375 17.3728 8.875 16.2439 7.75ZM14.9059 14.0833C14.7805 14.4167 14.1951 14.75 13.9024 14.7917C13.6516 14.8333 13.3171 14.8333 12.9826 14.75C12.7735 14.6667 12.4808 14.5833 12.1463 14.4167C10.6411 13.7917 9.67944 12.2917 9.59582 12.1667C9.5122 12.0833 8.96864 11.375 8.96864 10.625C8.96864 9.875 9.34495 9.54167 9.47038 9.375C9.59582 9.20833 9.76307 9.20833 9.8885 9.20833C9.97212 9.20833 10.0976 9.20833 10.1812 9.20833C10.2648 9.20833 10.3902 9.16667 10.5157 9.45833C10.6411 9.75 10.9338 10.5 10.9756 10.5417C11.0174 10.625 11.0174 10.7083 10.9756 10.7917C10.9338 10.875 10.892 10.9583 10.8084 11.0417C10.7247 11.125 10.6411 11.25 10.5993 11.2917C10.5157 11.375 10.4321 11.4583 10.5157 11.5833C10.5993 11.75 10.892 12.2083 11.3519 12.625C11.9373 13.125 12.3972 13.2917 12.5645 13.375C12.7317 13.4583 12.8153 13.4167 12.899 13.3333C12.9826 13.25 13.2753 12.9167 13.3589 12.75C13.4425 12.5833 13.5679 12.625 13.6934 12.6667C13.8188 12.7083 14.5714 13.0833 14.6969 13.1667C14.8641 13.25 14.9477 13.2917 14.9895 13.3333C15.0314 13.4583 15.0314 13.75 14.9059 14.0833Z" fill="white"/>
</svg>
