<svg width="20" height="20" viewBox="0 0 20 20" fill="none" xmlns="http://www.w3.org/2000/svg">
<g clip-path="url(#clip0_1394_35762)">
<path fill-rule="evenodd" clip-rule="evenodd" d="M10.6666 4.37498C11.0533 4.37503 11.425 4.52878 11.6985 4.80223C11.9718 5.07568 12.1249 5.4467 12.1249 5.83331V6.45831H12.2917C13.2122 6.45831 13.9584 7.20451 13.9584 8.12498V10.625C13.9584 11.5455 13.2122 12.2916 12.2917 12.2916H7.70842C6.78794 12.2916 6.04175 11.5455 6.04175 10.625V8.12498C6.04176 7.20451 6.78795 6.45831 7.70842 6.45831H7.87524V5.83331C7.87525 5.44655 8.02901 5.07571 8.30249 4.80223C8.57597 4.52881 8.94686 4.37498 9.33358 4.37498H10.6666ZM7.70842 7.70831C7.4783 7.70831 7.29176 7.89487 7.29175 8.12498V10.625C7.29175 10.8551 7.4783 11.0416 7.70842 11.0416H12.2917C12.5219 11.0416 12.7084 10.8551 12.7084 10.625V8.12498C12.7084 7.89487 12.5219 7.70831 12.2917 7.70831H7.70842ZM9.33358 5.62498C9.27838 5.62498 9.22534 5.64701 9.18628 5.68602C9.14721 5.72508 9.12525 5.77807 9.12524 5.83331V6.45831H10.8749V5.83331C10.8749 5.77811 10.8529 5.72507 10.8139 5.68602C10.7749 5.64709 10.7217 5.62503 10.6666 5.62498H9.33358Z" fill="#323232"/>
<path fill-rule="evenodd" clip-rule="evenodd" d="M9.98218 1.04165C11.8912 1.03723 13.7296 1.73942 15.1466 3.00535L15.4241 3.26577L15.4249 3.2674L15.4485 3.29018L15.4493 3.29181C16.1652 4.00444 16.734 4.85171 17.1217 5.78448C17.5092 6.71713 17.7084 7.71725 17.7084 8.72719C17.7084 9.73714 17.5092 10.7373 17.1217 11.6699C16.7341 12.6026 16.1651 13.4492 15.4493 14.1618L12.518 17.0849L12.5172 17.0858C11.8506 17.7493 10.9488 18.1228 10.0082 18.125C9.06769 18.1271 8.16406 17.7576 7.49439 17.0971L7.48218 17.0849L4.55005 14.1626C3.8345 13.4501 3.2668 12.6024 2.87931 11.6699C2.49175 10.7372 2.29175 9.73724 2.29175 8.72719C2.29175 7.71725 2.49101 6.71714 2.8785 5.78448C3.26606 4.85181 3.83429 4.0044 4.55005 3.29181C5.99321 1.85522 7.94588 1.04642 9.98218 1.04165ZM9.98462 2.29165C8.27799 2.29571 6.64177 2.97325 5.43221 4.17723C4.83302 4.77371 4.35772 5.48307 4.03328 6.26381C3.70885 7.04456 3.54175 7.88172 3.54175 8.72719C3.54175 9.57267 3.70885 10.4098 4.03328 11.1906C4.35773 11.9713 4.83382 12.6807 5.43302 13.2772L8.36434 16.1995L8.37248 16.2077L8.54256 16.359C8.95476 16.6924 9.47105 16.8762 10.0058 16.875C10.6168 16.8735 11.2028 16.6306 11.6358 16.1995L14.568 13.2772C15.1672 12.6807 15.6424 11.9713 15.9669 11.1906C16.2913 10.4098 16.4584 9.57267 16.4584 8.72719C16.4584 7.88172 16.2913 7.04457 15.9669 6.26381C15.6426 5.48337 15.1676 4.77437 14.5688 4.17804L14.546 4.15607C13.3307 2.95776 11.6913 2.28764 9.98462 2.29165Z" fill="#323232"/>
</g>
<defs>
<clipPath id="clip0_1394_35762">
<rect width="20" height="20" fill="white"/>
</clipPath>
</defs>
</svg>
