<svg width="20" height="20" viewBox="0 0 20 20" fill="none" xmlns="http://www.w3.org/2000/svg">
<path d="M9.26164 14.2311L11.966 8.13759C12.1856 7.64264 11.9917 7.069 11.5327 6.80476L11.4376 6.75631L11.4369 6.75598C10.9075 6.51819 10.2846 6.75646 10.0491 7.28686L7.68282 12.6187C7.5428 12.9342 7.17352 13.0764 6.85802 12.9364C6.54252 12.7964 6.40026 12.4271 6.54029 12.1116L8.9066 6.77979C9.42282 5.61688 10.7865 5.09528 11.9473 5.61584L11.9484 5.61543C13.1039 6.13325 13.6218 7.48785 13.1085 8.64465L10.4042 14.7382C10.2642 15.0537 9.89488 15.1959 9.57937 15.0559C9.26408 14.9158 9.12166 14.5465 9.26164 14.2311Z" fill="#4153E4"/>
<path d="M3.91281 11.9029L6.97205 5.00974C7.11207 4.69424 7.48135 4.55199 7.79685 4.69201C8.11235 4.83203 8.25461 5.20131 8.11459 5.51681L5.05534 12.4099C4.91532 12.7254 4.54604 12.8677 4.23054 12.7277C3.91504 12.5877 3.77279 12.2184 3.91281 11.9029Z" fill="#4153E4"/>
<path d="M12.2229 13.7219L14.5892 8.39011C14.7293 8.07461 15.0985 7.93236 15.414 8.07238C15.7295 8.2124 15.8718 8.58168 15.7318 8.89718L13.3655 14.229C13.2254 14.5445 12.8562 14.6868 12.5407 14.5467C12.2252 14.4067 12.0829 14.0374 12.2229 13.7219Z" fill="#4153E4"/>
<path d="M3.76104 12.2458L3.93006 11.865C4.07008 11.5495 4.43936 11.4072 4.75486 11.5472C5.07036 11.6873 5.21262 12.0565 5.07259 12.372L4.90357 12.7529C4.39015 13.9097 4.91175 15.2637 6.06859 15.7771C7.22543 16.2906 8.57944 15.769 9.09286 14.6121L9.26188 14.2313C9.4019 13.9158 9.77118 13.7735 10.0867 13.9136C10.4022 14.0536 10.5444 14.4229 10.4044 14.7384L10.2354 15.1192C9.44193 16.907 7.34937 17.7131 5.56152 16.9197C3.77368 16.1262 2.96757 14.0337 3.76104 12.2458Z" fill="#4153E4"/>
<path d="M14.5891 8.39029C15.3825 6.60277 14.5762 4.50974 12.7887 3.71642C11.0011 2.9231 8.90811 3.72938 8.11479 5.51691C7.97477 5.83241 7.60549 5.97466 7.28999 5.83464C6.97449 5.69462 6.83223 5.32534 6.97226 5.00984C8.04562 2.59131 10.8772 1.50052 13.2957 2.57389C15.7143 3.64725 16.805 6.47883 15.7317 8.89736C15.5917 9.21286 15.2224 9.35511 14.9069 9.21509C14.5914 9.07507 14.4491 8.70579 14.5891 8.39029Z" fill="#4153E4"/>
</svg>
